<svg width="122" height="26" viewBox="0 0 122 26" fill="none" xmlns="http://www.w3.org/2000/svg">
<path fill-rule="evenodd" clip-rule="evenodd" d="M19.7801 18.5303C20.7457 16.5178 21.2174 14.3045 21.1564 12.0736C21.2227 9.84233 20.7567 7.62725 19.7968 5.6114C18.9595 3.90086 17.6534 2.46288 16.0303 1.46466C12.6622 -0.472596 8.5166 -0.472596 5.14854 1.46466C3.52377 2.46255 2.21574 3.90048 1.37644 5.6114C-0.458813 9.72061 -0.458813 14.4155 1.37644 18.5247C2.2153 20.2389 3.52318 21.6806 5.14854 22.6826C8.5166 24.6198 12.6622 24.6198 16.0303 22.6826C17.6476 21.68 18.9477 20.2403 19.7801 18.5303ZM16.7212 7.24213C17.3814 8.76501 17.6973 10.4147 17.6461 12.0735C17.6967 13.7323 17.3809 15.3818 16.7212 16.9049C16.1879 18.1217 15.3107 19.1567 14.1972 19.8827C11.9733 21.2382 9.17765 21.2382 6.95384 19.8827C5.84618 19.1515 4.97205 18.1179 4.43537 16.9049C3.2098 13.8003 3.2098 10.3467 4.43537 7.24213C4.97197 6.0275 5.846 4.99209 6.95384 4.25871C9.17979 2.91087 11.9712 2.91087 14.1972 4.25871C15.3109 4.98697 16.188 6.02372 16.7212 7.24213Z" fill="#3E65FF"/>
<path d="M32.0273 23.8126V0.334849H40.3852C41.959 0.274801 43.5222 0.617773 44.9262 1.33118C46.0803 1.94457 47.0207 2.89374 47.6228 4.053C48.83 6.51054 48.83 9.38797 47.6228 11.8455C47.0171 13.0086 46.073 13.9614 44.915 14.5785C43.5128 15.2919 41.952 15.6367 40.3795 15.5804H34.6351V12.5747H40.073C41.0375 12.6105 41.9954 12.4038 42.8589 11.9735C43.5456 11.6052 44.099 11.0309 44.4415 10.3315C44.7863 9.58738 44.9577 8.77476 44.9429 7.95482C44.9577 7.14027 44.7863 6.33305 44.4415 5.59479C44.0972 4.90185 43.5409 4.33648 42.8534 3.98064C41.9657 3.5528 40.9854 3.35197 40.0007 3.39619H35.5432V23.8349L32.0273 23.8126Z" fill="#3E65FF"/>
<path d="M71.9672 6.50329C71.8814 5.47186 71.3216 4.5385 70.4517 3.97627C69.4542 3.34494 68.2885 3.03056 67.1085 3.07458C66.2527 3.05431 65.4017 3.20767 64.6069 3.52542C63.9595 3.78536 63.3938 4.21401 62.9686 4.76667C62.5943 5.28415 62.3987 5.90939 62.4115 6.54782C62.3995 7.05841 62.537 7.56139 62.8072 7.995C63.0799 8.40361 63.4369 8.74904 63.8546 9.00802C64.2925 9.28328 64.7598 9.50915 65.2476 9.68153C65.7169 9.85479 66.1947 10.0034 66.6795 10.1268L68.9639 10.7224C69.7498 10.9151 70.5209 11.1643 71.2707 11.4682C72.056 11.7771 72.7947 12.193 73.4659 12.7039C74.1386 13.2163 74.6949 13.865 75.0985 14.6075C75.5357 15.4449 75.7524 16.3797 75.7282 17.3238C75.7486 18.5805 75.3895 19.8142 74.6973 20.8638C73.9596 21.9434 72.9295 22.7908 71.7276 23.3074C70.2429 23.9409 68.6388 24.2466 67.0249 24.2034C65.4627 24.2403 63.9095 23.9562 62.4617 23.3685C61.2525 22.8709 60.2066 22.0458 59.4418 20.9863C58.694 19.9076 58.2759 18.6353 58.2383 17.3238H61.793C61.8316 18.1003 62.1232 18.843 62.6232 19.4389C63.1283 20.0111 63.7734 20.4427 64.4955 20.6913C65.3021 20.9674 66.15 21.1047 67.0028 21.0976C67.9186 21.1124 68.8287 20.9499 69.6827 20.6188C70.408 20.3472 71.0483 19.8882 71.5381 19.2886C71.9885 18.721 72.2268 18.0145 72.2124 17.2904C72.2386 16.6667 72.0276 16.0562 71.6217 15.5816C71.179 15.0979 70.6349 14.7177 70.0282 14.4683C69.2925 14.1564 68.5345 13.8996 67.7604 13.7002L64.9745 12.9432C63.3328 12.5503 61.8062 11.7782 60.517 10.689C59.4036 9.6849 58.7916 8.24019 58.8456 6.74263C58.8223 5.47302 59.2133 4.23034 59.9599 3.20259C60.7255 2.1647 61.7545 1.34993 62.9408 0.842571C64.2801 0.263926 65.7277 -0.0226104 67.1866 0.00209025C68.6364 -0.0274982 70.0754 0.257351 71.4043 0.837003C72.5511 1.33787 73.5465 2.13052 74.2907 3.1358C74.9952 4.10897 75.3842 5.27459 75.4049 6.47546L71.9672 6.50329Z" fill="#3E65FF"/>
<path d="M89.9515 0.335938V23.8137H86.4023V0.335938H89.9515Z" fill="#3E65FF"/>
<path fill-rule="evenodd" clip-rule="evenodd" d="M120.617 18.5304C121.583 16.5179 122.055 14.3046 121.993 12.0737C122.055 9.84108 121.583 7.62594 120.617 5.61151C119.78 3.89902 118.472 2.46051 116.845 1.46477C113.479 -0.472633 109.335 -0.472633 105.969 1.46477C104.342 2.46051 103.034 3.89902 102.197 5.61151C100.361 9.72073 100.361 14.4156 102.197 18.5248C103.034 20.24 104.342 21.6821 105.969 22.6826C109.335 24.6201 113.479 24.6201 116.845 22.6826C118.472 21.6855 119.781 20.2449 120.617 18.5304ZM117.558 7.24244C118.216 8.76614 118.532 10.4152 118.483 12.0738C118.531 13.7323 118.215 15.3813 117.558 16.9052C117.021 18.1196 116.145 19.1536 115.034 19.883C112.81 21.2384 110.015 21.2384 107.791 19.883C106.682 19.1533 105.807 18.1193 105.272 16.9052C104.039 13.8021 104.039 10.3455 105.272 7.24244C105.807 6.0268 106.682 4.99098 107.791 4.259C110.017 2.91119 112.808 2.91119 115.034 4.259C116.145 4.99042 117.021 6.02625 117.558 7.24244Z" fill="#3E65FF"/>
<path d="M110.223 16.1992H113.711L116.168 19.3997L117.327 20.819L121.227 25.9231H117.6L114.987 22.5167L114.095 21.2811L110.223 16.1992Z" fill="#3E65FF"/>
</svg>
