<svg id="svg" version="1.1" xmlns="http://www.w3.org/2000/svg" xmlns:xlink="http://www.w3.org/1999/xlink" width="400" height="506.43015521064297" viewBox="0, 0, 400,506.43015521064297"><g id="svgg"><path id="path0" d="M180.400 34.400 C 180.400 35.200,180.600 35.600,181.000 35.600 C 181.400 35.600,181.600 35.200,181.600 34.400 C 181.600 33.600,181.400 33.200,181.000 33.200 C 180.600 33.200,180.400 33.600,180.400 34.400 M179.600 36.747 C 179.600 37.190,179.420 37.664,179.200 37.800 C 178.980 37.936,178.800 38.577,178.800 39.224 C 178.800 39.871,178.620 40.400,178.400 40.400 C 178.180 40.400,178.000 40.741,178.000 41.157 C 178.000 41.574,177.730 42.018,177.400 42.145 C 177.070 42.271,176.800 42.730,176.800 43.164 C 176.800 43.598,176.620 44.064,176.400 44.200 C 176.180 44.336,176.000 44.987,176.000 45.647 C 176.000 46.345,175.833 46.744,175.600 46.600 C 175.373 46.460,175.200 46.796,175.200 47.376 C 175.200 47.939,175.020 48.400,174.800 48.400 C 174.580 48.400,174.400 49.015,174.400 49.767 C 174.400 50.518,174.234 51.193,174.030 51.267 C 173.826 51.340,173.601 51.666,173.530 51.990 C 173.459 52.315,173.175 52.823,172.900 53.119 C 172.625 53.415,172.400 54.094,172.400 54.629 C 172.400 55.163,172.220 55.600,172.000 55.600 C 171.780 55.600,171.600 55.949,171.600 56.376 C 171.600 56.803,171.420 57.264,171.200 57.400 C 170.980 57.536,170.800 58.177,170.800 58.824 C 170.800 59.471,170.620 60.000,170.400 60.000 C 170.180 60.000,170.000 60.450,170.000 61.000 C 170.000 61.550,169.834 62.000,169.632 62.000 C 169.429 62.000,169.145 62.540,169.000 63.200 C 168.855 63.860,168.571 64.400,168.368 64.400 C 168.166 64.400,168.000 64.760,168.000 65.200 C 168.000 65.640,167.820 66.000,167.600 66.000 C 167.380 66.000,167.200 66.630,167.200 67.400 C 167.200 68.170,167.020 68.800,166.800 68.800 C 166.580 68.800,166.400 69.149,166.400 69.576 C 166.400 70.003,166.220 70.464,166.000 70.600 C 165.780 70.736,165.600 71.377,165.600 72.024 C 165.600 72.803,165.397 73.200,165.000 73.200 C 164.670 73.200,164.400 73.549,164.400 73.976 C 164.400 74.403,164.220 74.864,164.000 75.000 C 163.780 75.136,163.600 75.777,163.600 76.424 C 163.600 77.071,163.420 77.600,163.200 77.600 C 162.980 77.600,162.800 77.949,162.800 78.376 C 162.800 78.803,162.620 79.264,162.400 79.400 C 162.180 79.536,162.000 80.177,162.000 80.824 C 162.000 81.471,161.823 82.000,161.608 82.000 C 161.392 82.000,161.102 82.450,160.964 83.000 C 160.826 83.550,160.553 84.000,160.357 84.000 C 160.160 84.000,160.000 84.540,160.000 85.200 C 160.000 85.860,159.820 86.400,159.600 86.400 C 159.380 86.400,159.200 86.850,159.200 87.400 C 159.200 87.950,159.020 88.400,158.800 88.400 C 158.580 88.400,158.400 88.940,158.400 89.600 C 158.400 90.260,158.220 90.800,158.000 90.800 C 157.780 90.800,157.600 91.250,157.600 91.800 C 157.600 92.422,157.373 92.800,157.000 92.800 C 156.603 92.800,156.400 93.197,156.400 93.976 C 156.400 94.623,156.220 95.264,156.000 95.400 C 155.780 95.536,155.600 95.997,155.600 96.424 C 155.600 96.851,155.420 97.200,155.200 97.200 C 154.980 97.200,154.800 97.560,154.800 98.000 C 154.800 98.440,154.620 98.800,154.400 98.800 C 154.180 98.800,154.000 99.415,154.000 100.167 C 154.000 100.918,153.834 101.593,153.630 101.667 C 153.427 101.740,153.202 102.066,153.130 102.390 C 153.059 102.715,152.775 103.223,152.500 103.519 C 152.225 103.815,152.000 104.494,152.000 105.029 C 152.000 105.563,151.820 106.000,151.600 106.000 C 151.380 106.000,151.200 106.349,151.200 106.776 C 151.200 107.203,151.020 107.664,150.800 107.800 C 150.580 107.936,150.400 108.577,150.400 109.224 C 150.400 109.871,150.220 110.400,150.000 110.400 C 149.780 110.400,149.600 110.831,149.600 111.357 C 149.600 111.884,149.330 112.418,149.000 112.545 C 148.670 112.671,148.400 113.231,148.400 113.787 C 148.400 114.344,148.220 114.800,148.000 114.800 C 147.780 114.800,147.600 115.250,147.600 115.800 C 147.600 116.350,147.420 116.800,147.200 116.800 C 146.980 116.800,146.800 117.340,146.800 118.000 C 146.800 118.660,146.620 119.200,146.400 119.200 C 146.180 119.200,146.000 119.650,146.000 120.200 C 146.000 120.750,145.820 121.200,145.600 121.200 C 145.380 121.200,145.200 121.740,145.200 122.400 C 145.200 123.200,145.000 123.600,144.600 123.600 C 144.227 123.600,144.000 123.978,144.000 124.600 C 144.000 125.150,143.820 125.600,143.600 125.600 C 143.380 125.600,143.200 126.230,143.200 127.000 C 143.200 127.770,143.020 128.400,142.800 128.400 C 142.580 128.400,142.400 128.760,142.400 129.200 C 142.400 129.640,142.220 130.000,142.000 130.000 C 141.780 130.000,141.600 130.641,141.600 131.424 C 141.600 132.271,141.438 132.747,141.200 132.600 C 140.849 132.383,140.636 132.875,140.740 133.662 C 140.759 133.806,140.510 134.143,140.187 134.411 C 139.864 134.679,139.600 135.416,139.600 136.049 C 139.600 136.682,139.420 137.200,139.200 137.200 C 138.980 137.200,138.800 137.560,138.800 138.000 C 138.800 138.440,138.620 138.800,138.400 138.800 C 138.180 138.800,138.000 139.430,138.000 140.200 C 138.000 140.970,137.820 141.600,137.600 141.600 C 137.380 141.600,137.200 141.941,137.200 142.357 C 137.200 142.774,136.930 143.218,136.600 143.345 C 136.249 143.479,136.000 144.079,136.000 144.787 C 136.000 145.454,135.820 146.000,135.600 146.000 C 135.380 146.000,135.200 146.360,135.200 146.800 C 135.200 147.240,135.020 147.600,134.800 147.600 C 134.580 147.600,134.400 148.230,134.400 149.000 C 134.400 149.770,134.220 150.400,134.000 150.400 C 133.780 150.400,133.600 150.745,133.600 151.167 C 133.600 151.588,133.412 151.996,133.182 152.073 C 132.952 152.149,132.734 152.614,132.697 153.106 C 132.660 153.598,132.437 154.000,132.202 154.000 C 131.967 154.000,131.734 154.495,131.684 155.100 C 131.634 155.705,131.415 156.260,131.197 156.333 C 130.978 156.407,130.800 156.902,130.800 157.433 C 130.800 157.965,130.620 158.400,130.400 158.400 C 130.180 158.400,130.000 158.940,130.000 159.600 C 130.000 160.260,129.820 160.800,129.600 160.800 C 129.380 160.800,129.200 161.340,129.200 162.000 C 129.200 162.668,129.005 163.156,128.759 163.100 C 128.516 163.045,128.254 163.537,128.176 164.194 C 128.098 164.851,127.847 165.451,127.617 165.528 C 127.388 165.604,127.200 166.001,127.200 166.410 C 127.200 166.818,127.020 167.264,126.800 167.400 C 126.580 167.536,126.400 168.177,126.400 168.824 C 126.400 169.471,126.220 170.000,126.000 170.000 C 125.780 170.000,125.600 170.360,125.600 170.800 C 125.600 171.240,125.420 171.600,125.200 171.600 C 124.980 171.600,124.800 172.230,124.800 173.000 C 124.800 173.978,124.619 174.400,124.200 174.400 C 123.867 174.400,123.600 174.756,123.600 175.200 C 123.600 175.640,123.420 176.000,123.200 176.000 C 122.980 176.000,122.800 176.630,122.800 177.400 C 122.800 178.170,122.620 178.800,122.400 178.800 C 122.180 178.800,122.000 179.160,122.000 179.600 C 122.000 180.040,121.820 180.400,121.600 180.400 C 121.380 180.400,121.200 181.030,121.200 181.800 C 121.200 182.778,121.019 183.200,120.600 183.200 C 120.270 183.200,120.000 183.549,120.000 183.976 C 120.000 184.403,119.820 184.864,119.600 185.000 C 119.380 185.136,119.200 185.777,119.200 186.424 C 119.200 187.071,119.020 187.600,118.800 187.600 C 118.580 187.600,118.400 187.960,118.400 188.400 C 118.400 188.840,118.220 189.200,118.000 189.200 C 117.780 189.200,117.600 189.830,117.600 190.600 C 117.600 191.370,117.420 192.000,117.200 192.000 C 116.980 192.000,116.800 192.338,116.800 192.751 C 116.800 193.164,116.530 193.726,116.200 194.000 C 115.870 194.274,115.600 194.926,115.600 195.449 C 115.600 195.972,115.420 196.400,115.200 196.400 C 114.980 196.400,114.800 196.850,114.800 197.400 C 114.800 197.950,114.620 198.400,114.400 198.400 C 114.180 198.400,114.000 198.940,114.000 199.600 C 114.000 200.260,113.820 200.800,113.600 200.800 C 113.380 200.800,113.200 201.250,113.200 201.800 C 113.200 202.350,113.020 202.800,112.800 202.800 C 112.580 202.800,112.400 203.126,112.400 203.524 C 112.400 203.921,112.136 204.596,111.813 205.024 C 111.490 205.451,111.220 206.115,111.213 206.500 C 111.206 206.885,111.020 207.200,110.800 207.200 C 110.580 207.200,110.400 207.560,110.400 208.000 C 110.400 208.440,110.220 208.800,110.000 208.800 C 109.780 208.800,109.600 209.430,109.600 210.200 C 109.600 210.970,109.420 211.600,109.200 211.600 C 108.980 211.600,108.800 211.938,108.800 212.351 C 108.800 212.764,108.530 213.326,108.200 213.600 C 107.870 213.874,107.600 214.526,107.600 215.049 C 107.600 215.572,107.420 216.000,107.200 216.000 C 106.980 216.000,106.800 216.450,106.800 217.000 C 106.800 217.550,106.620 218.000,106.400 218.000 C 106.180 218.000,106.000 218.540,106.000 219.200 C 106.000 219.860,105.820 220.400,105.600 220.400 C 105.380 220.400,105.200 220.749,105.200 221.176 C 105.200 221.603,105.020 222.064,104.800 222.200 C 104.580 222.336,104.400 222.957,104.400 223.581 C 104.400 224.219,104.138 224.815,103.800 224.945 C 103.470 225.071,103.200 225.530,103.200 225.964 C 103.200 226.398,103.020 226.864,102.800 227.000 C 102.580 227.136,102.400 227.687,102.400 228.224 C 102.400 228.761,102.220 229.200,102.000 229.200 C 101.780 229.200,101.600 229.650,101.600 230.200 C 101.600 230.750,101.420 231.200,101.200 231.200 C 100.980 231.200,100.800 231.663,100.800 232.229 C 100.800 232.794,100.528 233.529,100.196 233.861 C 99.864 234.193,99.682 234.610,99.792 234.787 C 99.902 234.964,99.723 235.332,99.396 235.604 C 99.068 235.876,98.800 236.526,98.800 237.049 C 98.800 237.572,98.620 238.000,98.400 238.000 C 98.180 238.000,98.000 238.450,98.000 239.000 C 98.000 239.550,97.820 240.000,97.600 240.000 C 97.380 240.000,97.200 240.641,97.200 241.424 C 97.200 242.271,97.038 242.747,96.800 242.600 C 96.573 242.460,96.400 242.796,96.400 243.376 C 96.400 244.020,96.177 244.400,95.800 244.400 C 95.381 244.400,95.200 244.822,95.200 245.800 C 95.200 246.570,95.020 247.200,94.800 247.200 C 94.580 247.200,94.400 247.560,94.400 248.000 C 94.400 248.440,94.220 248.800,94.000 248.800 C 93.780 248.800,93.600 249.430,93.600 250.200 C 93.600 250.970,93.420 251.600,93.200 251.600 C 92.980 251.600,92.800 251.960,92.800 252.400 C 92.800 252.840,92.640 253.200,92.445 253.200 C 92.249 253.200,91.971 253.830,91.826 254.600 C 91.682 255.370,91.392 256.000,91.182 256.000 C 90.972 256.000,90.800 256.349,90.800 256.776 C 90.800 257.203,90.620 257.664,90.400 257.800 C 90.180 257.936,90.000 258.577,90.000 259.224 C 90.000 259.871,89.820 260.400,89.600 260.400 C 89.380 260.400,89.200 260.760,89.200 261.200 C 89.200 261.640,89.020 262.000,88.800 262.000 C 88.580 262.000,88.400 262.431,88.400 262.957 C 88.400 263.484,88.111 264.025,87.758 264.161 C 87.399 264.299,87.216 264.664,87.342 264.992 C 87.465 265.314,87.304 265.839,86.983 266.160 C 86.662 266.481,86.400 267.105,86.400 267.548 C 86.400 267.991,86.220 268.464,86.000 268.600 C 85.780 268.736,85.600 269.276,85.600 269.800 C 85.600 270.324,85.420 270.864,85.200 271.000 C 84.980 271.136,84.800 271.597,84.800 272.024 C 84.800 272.451,84.620 272.800,84.400 272.800 C 84.180 272.800,84.000 273.346,84.000 274.013 C 84.000 274.721,83.751 275.321,83.400 275.455 C 83.070 275.582,82.800 276.026,82.800 276.443 C 82.800 276.859,82.620 277.200,82.400 277.200 C 82.180 277.200,82.000 277.830,82.000 278.600 C 82.000 279.370,81.820 280.000,81.600 280.000 C 81.380 280.000,81.200 280.360,81.200 280.800 C 81.200 281.240,81.020 281.600,80.800 281.600 C 80.580 281.600,80.400 282.230,80.400 283.000 C 80.400 283.939,80.214 284.400,79.835 284.400 C 79.525 284.400,79.316 284.711,79.372 285.092 C 79.428 285.472,79.232 286.025,78.937 286.320 C 78.642 286.616,78.400 287.294,78.400 287.829 C 78.400 288.363,78.220 288.800,78.000 288.800 C 77.780 288.800,77.600 289.160,77.600 289.600 C 77.600 290.040,77.420 290.400,77.200 290.400 C 76.980 290.400,76.800 291.030,76.800 291.800 C 76.800 292.570,76.620 293.200,76.400 293.200 C 76.180 293.200,76.000 293.541,76.000 293.957 C 76.000 294.374,75.730 294.818,75.400 294.945 C 75.049 295.079,74.800 295.679,74.800 296.387 C 74.800 297.054,74.620 297.600,74.400 297.600 C 74.180 297.600,74.000 297.960,74.000 298.400 C 74.000 298.840,73.820 299.200,73.600 299.200 C 73.380 299.200,73.200 299.830,73.200 300.600 C 73.200 301.370,73.020 302.000,72.800 302.000 C 72.580 302.000,72.400 302.360,72.400 302.800 C 72.400 303.240,72.240 303.600,72.045 303.600 C 71.849 303.600,71.571 304.230,71.426 305.000 C 71.282 305.770,70.992 306.400,70.782 306.400 C 70.572 306.400,70.400 306.850,70.400 307.400 C 70.400 307.950,70.220 308.400,70.000 308.400 C 69.780 308.400,69.600 308.940,69.600 309.600 C 69.600 310.260,69.420 310.800,69.200 310.800 C 68.980 310.800,68.800 311.250,68.800 311.800 C 68.800 312.350,68.620 312.800,68.400 312.800 C 68.180 312.800,68.000 313.340,68.000 314.000 C 68.000 314.838,67.805 315.200,67.353 315.200 C 66.897 315.200,66.770 315.443,66.922 316.024 C 67.054 316.529,66.917 316.934,66.569 317.067 C 66.256 317.187,66.000 317.626,66.000 318.043 C 66.000 318.459,65.820 318.800,65.600 318.800 C 65.380 318.800,65.200 319.430,65.200 320.200 C 65.200 320.970,65.020 321.600,64.800 321.600 C 64.580 321.600,64.400 321.949,64.400 322.376 C 64.400 322.803,64.220 323.264,64.000 323.400 C 63.780 323.536,63.600 324.157,63.600 324.781 C 63.600 325.419,63.338 326.015,63.000 326.145 C 62.670 326.271,62.400 326.741,62.400 327.187 C 62.400 327.634,62.220 328.000,62.000 328.000 C 61.780 328.000,61.600 328.540,61.600 329.200 C 61.600 329.860,61.420 330.400,61.200 330.400 C 60.980 330.400,60.800 330.850,60.800 331.400 C 60.800 331.950,60.620 332.400,60.400 332.400 C 60.180 332.400,60.000 332.925,60.000 333.567 C 60.000 334.208,59.818 334.794,59.596 334.868 C 59.374 334.942,59.106 335.451,59.000 336.000 C 58.894 336.549,58.626 337.058,58.404 337.132 C 58.182 337.206,58.000 337.702,58.000 338.233 C 58.000 338.765,57.820 339.200,57.600 339.200 C 57.380 339.200,57.200 339.650,57.200 340.200 C 57.200 340.750,57.020 341.200,56.800 341.200 C 56.580 341.200,56.400 341.740,56.400 342.400 C 56.400 343.060,56.220 343.600,56.000 343.600 C 55.780 343.600,55.600 344.050,55.600 344.600 C 55.600 345.222,55.373 345.600,55.000 345.600 C 54.600 345.600,54.400 346.000,54.400 346.800 C 54.400 347.460,54.220 348.000,54.000 348.000 C 53.780 348.000,53.600 348.450,53.600 349.000 C 53.600 349.550,53.420 350.000,53.200 350.000 C 52.980 350.000,52.800 350.540,52.800 351.200 C 52.800 351.860,52.620 352.400,52.400 352.400 C 52.180 352.400,52.000 352.850,52.000 353.400 C 52.000 353.950,51.820 354.400,51.600 354.400 C 51.380 354.400,51.200 354.726,51.200 355.124 C 51.200 355.521,50.936 356.196,50.613 356.624 C 50.290 357.051,50.020 357.715,50.013 358.100 C 50.006 358.485,49.820 358.800,49.600 358.800 C 49.380 358.800,49.200 359.430,49.200 360.200 C 49.200 360.970,49.020 361.600,48.800 361.600 C 48.580 361.600,48.400 361.960,48.400 362.400 C 48.400 362.840,48.220 363.200,48.000 363.200 C 47.780 363.200,47.600 363.830,47.600 364.600 C 47.600 365.578,47.419 366.000,47.000 366.000 C 46.670 366.000,46.400 366.349,46.400 366.776 C 46.400 367.203,46.220 367.664,46.000 367.800 C 45.780 367.936,45.600 368.577,45.600 369.224 C 45.600 369.871,45.420 370.400,45.200 370.400 C 44.980 370.400,44.800 370.749,44.800 371.176 C 44.800 371.603,44.620 372.064,44.400 372.200 C 44.180 372.336,44.000 372.797,44.000 373.224 C 44.000 373.651,43.820 374.000,43.600 374.000 C 43.380 374.000,43.200 374.540,43.200 375.200 C 43.200 376.000,43.000 376.400,42.600 376.400 C 42.231 376.400,42.000 376.775,42.000 377.376 C 42.000 377.913,41.820 378.464,41.600 378.600 C 41.380 378.736,41.200 379.276,41.200 379.800 C 41.200 380.324,41.020 380.864,40.800 381.000 C 40.580 381.136,40.400 381.597,40.400 382.024 C 40.400 382.451,40.220 382.800,40.000 382.800 C 39.780 382.800,39.600 383.321,39.600 383.957 C 39.600 384.600,39.342 385.214,39.019 385.337 C 38.689 385.464,38.506 385.914,38.596 386.380 C 38.686 386.848,38.543 387.200,38.262 387.200 C 37.992 387.200,37.726 387.785,37.672 388.500 C 37.619 389.215,37.400 389.860,37.187 389.933 C 36.974 390.007,36.800 390.412,36.800 390.833 C 36.800 391.255,36.620 391.600,36.400 391.600 C 36.180 391.600,36.000 392.230,36.000 393.000 C 36.000 393.770,35.820 394.400,35.600 394.400 C 35.380 394.400,35.200 394.741,35.200 395.157 C 35.200 395.574,34.930 396.018,34.600 396.145 C 34.249 396.279,34.000 396.879,34.000 397.587 C 34.000 398.254,33.820 398.800,33.600 398.800 C 33.380 398.800,33.200 399.160,33.200 399.600 C 33.200 400.040,33.020 400.400,32.800 400.400 C 32.580 400.400,32.400 401.030,32.400 401.800 C 32.400 402.570,32.220 403.200,32.000 403.200 C 31.780 403.200,31.600 403.560,31.600 404.000 C 31.600 404.440,31.420 404.800,31.200 404.800 C 30.980 404.800,30.800 405.430,30.800 406.200 C 30.800 407.178,30.619 407.600,30.200 407.600 C 29.867 407.600,29.600 407.956,29.600 408.400 C 29.600 408.840,29.420 409.200,29.200 409.200 C 28.980 409.200,28.800 409.830,28.800 410.600 C 28.800 411.370,28.620 412.000,28.400 412.000 C 28.180 412.000,28.000 412.349,28.000 412.776 C 28.000 413.203,27.820 413.664,27.600 413.800 C 27.380 413.936,27.200 414.577,27.200 415.224 C 27.200 416.003,26.997 416.400,26.600 416.400 C 26.270 416.400,26.000 416.749,26.000 417.176 C 26.000 417.603,25.820 418.064,25.600 418.200 C 25.380 418.336,25.200 418.977,25.200 419.624 C 25.200 420.271,25.020 420.800,24.800 420.800 C 24.580 420.800,24.400 421.250,24.400 421.800 C 24.400 422.350,24.220 422.800,24.000 422.800 C 23.780 422.800,23.600 423.340,23.600 424.000 C 23.600 424.660,23.420 425.200,23.200 425.200 C 22.980 425.200,22.800 425.650,22.800 426.200 C 22.800 426.822,22.573 427.200,22.200 427.200 C 21.867 427.200,21.600 427.556,21.600 428.000 C 21.600 428.440,21.420 428.800,21.200 428.800 C 20.980 428.800,20.800 429.430,20.800 430.200 C 20.800 430.970,20.620 431.600,20.400 431.600 C 20.180 431.600,20.000 431.949,20.000 432.376 C 20.000 432.803,19.820 433.264,19.600 433.400 C 19.380 433.536,19.200 434.157,19.200 434.781 C 19.200 435.463,18.938 436.015,18.543 436.167 C 18.181 436.305,17.995 436.528,18.129 436.662 C 18.262 436.796,18.108 437.281,17.786 437.742 C 17.464 438.202,17.200 438.988,17.200 439.489 C 17.200 439.990,17.020 440.400,16.800 440.400 C 16.580 440.400,16.400 440.861,16.400 441.424 C 16.400 442.004,16.227 442.340,16.000 442.200 C 15.762 442.053,15.600 442.529,15.600 443.376 C 15.600 444.159,15.420 444.800,15.200 444.800 C 14.980 444.800,14.800 445.261,14.800 445.824 C 14.800 446.387,14.640 446.748,14.444 446.627 C 14.248 446.506,13.970 447.035,13.826 447.804 C 13.682 448.572,13.392 449.200,13.182 449.200 C 12.972 449.200,12.800 449.650,12.800 450.200 C 12.800 450.750,12.620 451.200,12.400 451.200 C 12.180 451.200,12.000 451.740,12.000 452.400 C 12.000 453.060,11.820 453.600,11.600 453.600 C 11.380 453.600,11.200 454.050,11.200 454.600 C 11.200 455.150,11.020 455.600,10.800 455.600 C 10.580 455.600,10.400 456.121,10.400 456.757 C 10.400 457.417,10.142 458.013,9.800 458.145 C 9.470 458.271,9.200 458.741,9.200 459.187 C 9.200 459.634,9.020 460.000,8.800 460.000 C 8.580 460.000,8.400 460.540,8.400 461.200 C 8.400 461.860,8.220 462.400,8.000 462.400 C 7.780 462.400,7.600 462.850,7.600 463.400 C 7.600 463.950,7.420 464.400,7.200 464.400 C 6.980 464.400,6.800 464.921,6.800 465.557 C 6.800 466.217,6.542 466.813,6.200 466.945 C 5.870 467.071,5.600 467.541,5.600 467.987 C 5.600 468.434,5.420 468.800,5.200 468.800 C 4.980 468.800,4.800 469.340,4.800 470.000 C 4.800 470.660,4.620 471.200,4.400 471.200 C 4.180 471.200,4.000 471.650,4.000 472.200 C 4.000 472.750,3.820 473.200,3.600 473.200 C 3.380 473.200,3.200 473.830,3.200 474.600 C 3.200 475.370,3.020 476.000,2.800 476.000 C 2.580 476.000,2.400 476.360,2.400 476.800 C 2.400 477.244,2.133 477.600,1.800 477.600 C 1.384 477.600,1.200 478.019,1.200 478.967 C 1.200 479.718,0.975 480.408,0.700 480.500 C -0.020 480.740,-0.020 494.860,0.700 495.100 C 0.975 495.192,1.200 495.702,1.200 496.233 C 1.200 496.826,1.432 497.200,1.800 497.200 C 2.130 497.200,2.400 497.520,2.400 497.912 C 2.400 498.303,2.760 498.883,3.200 499.200 C 3.640 499.517,4.000 499.930,4.000 500.117 C 4.000 500.520,5.027 501.600,5.411 501.600 C 5.558 501.600,6.183 502.140,6.800 502.800 C 7.417 503.460,8.189 504.000,8.518 504.000 C 8.846 504.000,9.218 504.270,9.345 504.600 C 9.477 504.946,10.075 505.200,10.754 505.200 C 11.403 505.200,12.008 505.424,12.099 505.697 C 12.328 506.384,24.882 506.355,25.111 505.667 C 25.197 505.410,25.617 505.200,26.046 505.200 C 26.474 505.200,26.929 504.930,27.055 504.600 C 27.182 504.270,27.626 504.000,28.043 504.000 C 28.459 504.000,28.800 503.820,28.800 503.600 C 28.800 503.380,29.160 503.200,29.600 503.200 C 30.040 503.200,30.400 503.020,30.400 502.800 C 30.400 502.580,30.627 502.400,30.905 502.400 C 31.183 502.400,31.768 501.920,32.205 501.334 C 32.642 500.748,33.225 500.041,33.500 499.763 C 33.775 499.485,34.000 498.974,34.000 498.629 C 34.000 498.283,34.270 498.000,34.600 498.000 C 34.930 498.000,35.200 497.651,35.200 497.224 C 35.200 496.797,35.380 496.336,35.600 496.200 C 35.820 496.064,36.000 495.603,36.000 495.176 C 36.000 494.749,36.180 494.400,36.400 494.400 C 36.620 494.400,36.800 493.770,36.800 493.000 C 36.800 492.230,36.980 491.600,37.200 491.600 C 37.420 491.600,37.600 491.240,37.600 490.800 C 37.600 490.360,37.780 490.000,38.000 490.000 C 38.220 490.000,38.400 489.370,38.400 488.600 C 38.400 487.622,38.581 487.200,39.000 487.200 C 39.333 487.200,39.600 486.844,39.600 486.400 C 39.600 485.960,39.780 485.600,40.000 485.600 C 40.220 485.600,40.400 485.150,40.400 484.600 C 40.400 484.050,40.580 483.600,40.800 483.600 C 41.020 483.600,41.200 483.060,41.200 482.400 C 41.200 481.740,41.380 481.200,41.600 481.200 C 41.820 481.200,42.000 480.827,42.000 480.371 C 42.000 479.916,42.270 479.273,42.600 478.943 C 42.930 478.613,43.200 477.996,43.200 477.571 C 43.200 477.147,43.380 476.800,43.600 476.800 C 43.820 476.800,44.000 476.350,44.000 475.800 C 44.000 475.250,44.180 474.800,44.400 474.800 C 44.620 474.800,44.800 474.271,44.800 473.624 C 44.800 472.977,44.980 472.336,45.200 472.200 C 45.420 472.064,45.600 471.603,45.600 471.176 C 45.600 470.749,45.780 470.400,46.000 470.400 C 46.220 470.400,46.400 469.879,46.400 469.243 C 46.400 468.583,46.658 467.987,47.000 467.855 C 47.330 467.729,47.600 467.259,47.600 466.813 C 47.600 466.366,47.780 466.000,48.000 466.000 C 48.220 466.000,48.400 465.370,48.400 464.600 C 48.400 463.830,48.580 463.200,48.800 463.200 C 49.020 463.200,49.200 462.840,49.200 462.400 C 49.200 461.960,49.380 461.600,49.600 461.600 C 49.820 461.600,50.000 460.970,50.000 460.200 C 50.000 459.430,50.180 458.800,50.400 458.800 C 50.620 458.800,50.800 458.459,50.800 458.043 C 50.800 457.626,51.070 457.182,51.400 457.055 C 51.751 456.921,52.000 456.321,52.000 455.613 C 52.000 454.946,52.180 454.400,52.400 454.400 C 52.620 454.400,52.800 454.040,52.800 453.600 C 52.800 453.160,52.980 452.800,53.200 452.800 C 53.420 452.800,53.600 452.170,53.600 451.400 C 53.600 450.630,53.780 450.000,54.000 450.000 C 54.220 450.000,54.400 449.659,54.400 449.243 C 54.400 448.826,54.670 448.382,55.000 448.255 C 55.351 448.121,55.600 447.521,55.600 446.813 C 55.600 446.146,55.780 445.600,56.000 445.600 C 56.220 445.600,56.400 445.240,56.400 444.800 C 56.400 444.360,56.580 444.000,56.800 444.000 C 57.020 444.000,57.200 443.370,57.200 442.600 C 57.200 441.830,57.380 441.200,57.600 441.200 C 57.820 441.200,58.000 440.840,58.000 440.400 C 58.000 439.960,58.180 439.600,58.400 439.600 C 58.620 439.600,58.800 438.970,58.800 438.200 C 58.800 437.222,58.981 436.800,59.400 436.800 C 59.730 436.800,60.000 436.451,60.000 436.024 C 60.000 435.597,60.180 435.136,60.400 435.000 C 60.620 434.864,60.800 434.223,60.800 433.576 C 60.800 432.929,60.980 432.400,61.200 432.400 C 61.420 432.400,61.600 431.950,61.600 431.400 C 61.600 430.850,61.780 430.400,62.000 430.400 C 62.220 430.400,62.400 430.040,62.400 429.600 C 62.400 429.160,62.572 428.800,62.782 428.800 C 62.992 428.800,63.282 428.170,63.426 427.400 C 63.571 426.630,63.849 426.000,64.045 426.000 C 64.240 426.000,64.400 425.640,64.400 425.200 C 64.400 424.760,64.580 424.400,64.800 424.400 C 65.020 424.400,65.200 423.770,65.200 423.000 C 65.200 422.230,65.380 421.600,65.600 421.600 C 65.820 421.600,66.000 421.240,66.000 420.800 C 66.000 420.360,66.180 420.000,66.400 420.000 C 66.620 420.000,66.800 419.370,66.800 418.600 C 66.800 417.622,66.981 417.200,67.400 417.200 C 67.730 417.200,68.000 416.851,68.000 416.424 C 68.000 415.997,68.180 415.536,68.400 415.400 C 68.620 415.264,68.800 414.623,68.800 413.976 C 68.800 413.329,68.980 412.800,69.200 412.800 C 69.420 412.800,69.600 412.451,69.600 412.024 C 69.600 411.597,69.780 411.136,70.000 411.000 C 70.220 410.864,70.400 410.223,70.400 409.576 C 70.400 408.929,70.580 408.400,70.800 408.400 C 71.020 408.400,71.200 408.034,71.200 407.587 C 71.200 407.141,71.431 406.686,71.714 406.578 C 71.996 406.469,72.268 405.890,72.317 405.290 C 72.366 404.691,72.585 404.140,72.803 404.067 C 73.022 403.993,73.200 403.498,73.200 402.967 C 73.200 402.435,73.380 402.000,73.600 402.000 C 73.820 402.000,74.000 401.460,74.000 400.800 C 74.000 400.140,74.180 399.600,74.400 399.600 C 74.620 399.600,74.800 399.169,74.800 398.643 C 74.800 398.116,75.070 397.582,75.400 397.455 C 75.730 397.329,76.000 396.780,76.000 396.236 C 76.000 395.692,76.180 395.136,76.400 395.000 C 76.620 394.864,76.800 394.403,76.800 393.976 C 76.800 393.549,76.980 393.200,77.200 393.200 C 77.420 393.200,77.600 392.660,77.600 392.000 C 77.600 391.340,77.780 390.800,78.000 390.800 C 78.220 390.800,78.400 390.350,78.400 389.800 C 78.400 389.250,78.580 388.800,78.800 388.800 C 79.020 388.800,79.200 388.279,79.200 387.643 C 79.200 386.983,79.458 386.387,79.800 386.255 C 80.130 386.129,80.400 385.659,80.400 385.213 C 80.400 384.766,80.580 384.400,80.800 384.400 C 81.020 384.400,81.200 383.770,81.200 383.000 C 81.200 382.230,81.380 381.600,81.600 381.600 C 81.820 381.600,82.000 381.240,82.000 380.800 C 82.000 380.360,82.180 380.000,82.400 380.000 C 82.620 380.000,82.800 379.370,82.800 378.600 C 82.800 377.622,82.981 377.200,83.400 377.200 C 83.733 377.200,84.000 376.844,84.000 376.400 C 84.000 375.960,84.180 375.600,84.400 375.600 C 84.620 375.600,84.800 375.150,84.800 374.600 C 84.800 374.050,84.980 373.600,85.200 373.600 C 85.420 373.600,85.600 373.060,85.600 372.400 C 85.600 371.740,85.780 371.200,86.000 371.200 C 86.220 371.200,86.400 370.750,86.400 370.200 C 86.400 369.650,86.580 369.200,86.800 369.200 C 87.020 369.200,87.200 368.679,87.200 368.043 C 87.200 367.383,87.458 366.787,87.800 366.655 C 88.130 366.529,88.400 366.059,88.400 365.613 C 88.400 365.166,88.580 364.800,88.800 364.800 C 89.020 364.800,89.200 364.271,89.200 363.624 C 89.200 362.977,89.380 362.336,89.600 362.200 C 89.820 362.064,90.000 361.603,90.000 361.176 C 90.000 360.749,90.180 360.400,90.400 360.400 C 90.620 360.400,90.800 359.860,90.800 359.200 C 90.800 358.540,90.980 358.000,91.200 358.000 C 91.420 358.000,91.600 357.569,91.600 357.043 C 91.600 356.516,91.870 355.982,92.200 355.855 C 92.530 355.729,92.800 355.169,92.800 354.613 C 92.800 354.056,92.980 353.600,93.200 353.600 C 93.420 353.600,93.600 353.150,93.600 352.600 C 93.600 352.050,93.780 351.600,94.000 351.600 C 94.220 351.600,94.400 350.970,94.400 350.200 C 94.400 349.430,94.580 348.800,94.800 348.800 C 95.020 348.800,95.200 348.459,95.200 348.043 C 95.200 347.626,95.470 347.182,95.800 347.055 C 96.151 346.921,96.400 346.321,96.400 345.613 C 96.400 344.946,96.580 344.400,96.800 344.400 C 97.020 344.400,97.200 344.040,97.200 343.600 C 97.200 343.160,97.380 342.800,97.600 342.800 C 97.820 342.800,98.000 342.170,98.000 341.400 C 98.000 340.630,98.180 340.000,98.400 340.000 C 98.620 340.000,98.800 339.640,98.800 339.200 C 98.800 338.760,98.980 338.400,99.200 338.400 C 99.420 338.400,99.600 337.770,99.600 337.000 C 99.600 336.022,99.781 335.600,100.200 335.600 C 100.533 335.600,100.800 335.244,100.800 334.800 C 100.800 334.360,100.980 334.000,101.200 334.000 C 101.420 334.000,101.600 333.370,101.600 332.600 C 101.600 331.830,101.780 331.200,102.000 331.200 C 102.220 331.200,102.400 330.840,102.400 330.400 C 102.400 329.960,102.580 329.600,102.800 329.600 C 103.020 329.600,103.200 328.970,103.200 328.200 C 103.200 327.222,103.381 326.800,103.800 326.800 C 104.130 326.800,104.400 326.451,104.400 326.024 C 104.400 325.597,104.580 325.136,104.800 325.000 C 105.020 324.864,105.200 324.223,105.200 323.576 C 105.200 322.929,105.380 322.400,105.600 322.400 C 105.820 322.400,106.000 322.051,106.000 321.624 C 106.000 321.197,106.180 320.736,106.400 320.600 C 106.620 320.464,106.800 320.003,106.800 319.576 C 106.800 319.149,106.980 318.800,107.200 318.800 C 107.420 318.800,107.600 318.170,107.600 317.400 C 107.600 316.422,107.781 316.000,108.200 316.000 C 108.533 316.000,108.800 315.644,108.800 315.200 C 108.800 314.760,108.980 314.400,109.200 314.400 C 109.420 314.400,109.600 313.770,109.600 313.000 C 109.600 312.230,109.780 311.600,110.000 311.600 C 110.220 311.600,110.400 311.240,110.400 310.800 C 110.400 310.360,110.580 310.000,110.800 310.000 C 111.020 310.000,111.200 309.370,111.200 308.600 C 111.200 307.830,111.380 307.200,111.600 307.200 C 111.820 307.200,112.000 306.859,112.000 306.443 C 112.000 306.026,112.270 305.582,112.600 305.455 C 112.951 305.321,113.200 304.721,113.200 304.013 C 113.200 303.346,113.380 302.800,113.600 302.800 C 113.820 302.800,114.000 302.451,114.000 302.024 C 114.000 301.597,114.180 301.136,114.400 301.000 C 114.620 300.864,114.800 300.223,114.800 299.576 C 114.800 298.929,114.980 298.400,115.200 298.400 C 115.420 298.400,115.600 297.939,115.600 297.376 C 115.600 296.813,115.761 296.452,115.958 296.574 C 116.367 296.827,116.800 295.899,116.800 294.767 C 116.800 294.345,116.980 294.000,117.200 294.000 C 117.420 294.000,117.600 293.651,117.600 293.224 C 117.600 292.797,117.780 292.336,118.000 292.200 C 118.220 292.064,118.400 291.423,118.400 290.776 C 118.400 290.129,118.580 289.600,118.800 289.600 C 119.020 289.600,119.200 289.150,119.200 288.600 C 119.200 288.050,119.380 287.600,119.600 287.600 C 119.820 287.600,120.000 287.079,120.000 286.443 C 120.000 285.783,120.258 285.187,120.600 285.055 C 120.930 284.929,121.200 284.459,121.200 284.013 C 121.200 283.566,121.380 283.200,121.600 283.200 C 121.820 283.200,122.000 282.660,122.000 282.000 C 122.000 281.340,122.180 280.800,122.400 280.800 C 122.620 280.800,122.800 280.350,122.800 279.800 C 122.800 279.250,122.980 278.800,123.200 278.800 C 123.420 278.800,123.600 278.279,123.600 277.643 C 123.600 276.983,123.858 276.387,124.200 276.255 C 124.530 276.129,124.800 275.659,124.800 275.213 C 124.800 274.766,124.980 274.400,125.200 274.400 C 125.420 274.400,125.600 273.860,125.600 273.200 C 125.600 272.540,125.780 272.000,126.000 272.000 C 126.220 272.000,126.400 271.550,126.400 271.000 C 126.400 270.450,126.580 270.000,126.800 270.000 C 127.020 270.000,127.200 269.370,127.200 268.600 C 127.200 267.830,127.380 267.200,127.600 267.200 C 127.820 267.200,128.000 266.859,128.000 266.443 C 128.000 266.026,128.270 265.582,128.600 265.455 C 128.930 265.329,129.200 264.859,129.200 264.413 C 129.200 263.966,129.380 263.600,129.600 263.600 C 129.820 263.600,130.000 263.060,130.000 262.400 C 130.000 261.740,130.180 261.200,130.400 261.200 C 130.620 261.200,130.800 260.750,130.800 260.200 C 130.800 259.650,130.980 259.200,131.200 259.200 C 131.420 259.200,131.600 258.660,131.600 258.000 C 131.600 257.340,131.780 256.800,132.000 256.800 C 132.220 256.800,132.400 256.350,132.400 255.800 C 132.400 255.178,132.627 254.800,133.000 254.800 C 133.400 254.800,133.600 254.400,133.600 253.600 C 133.600 252.940,133.780 252.400,134.000 252.400 C 134.220 252.400,134.400 251.950,134.400 251.400 C 134.400 250.850,134.580 250.400,134.800 250.400 C 135.020 250.400,135.200 249.860,135.200 249.200 C 135.200 248.540,135.380 248.000,135.600 248.000 C 135.820 248.000,136.000 247.627,136.000 247.171 C 136.000 246.716,136.270 246.073,136.600 245.743 C 136.930 245.413,137.200 244.806,137.200 244.395 C 137.200 243.984,137.380 243.536,137.600 243.400 C 137.820 243.264,138.000 242.803,138.000 242.376 C 138.000 241.949,138.180 241.600,138.400 241.600 C 138.620 241.600,138.800 241.060,138.800 240.400 C 138.800 239.740,138.980 239.200,139.200 239.200 C 139.420 239.200,139.600 238.750,139.600 238.200 C 139.600 237.650,139.780 237.200,140.000 237.200 C 140.220 237.200,140.400 236.570,140.400 235.800 C 140.400 234.822,140.581 234.400,141.000 234.400 C 141.333 234.400,141.600 234.044,141.600 233.600 C 141.600 233.160,141.780 232.800,142.000 232.800 C 142.220 232.800,142.400 232.170,142.400 231.400 C 142.400 230.630,142.580 230.000,142.800 230.000 C 143.020 230.000,143.200 229.640,143.200 229.200 C 143.200 228.760,143.380 228.400,143.600 228.400 C 143.820 228.400,144.000 227.789,144.000 227.043 C 144.000 226.205,144.230 225.597,144.600 225.455 C 144.930 225.329,145.200 224.949,145.200 224.613 C 145.200 224.276,145.380 224.000,145.600 224.000 C 145.820 224.000,146.000 223.370,146.000 222.600 C 146.000 221.830,146.180 221.200,146.400 221.200 C 146.620 221.200,146.800 220.840,146.800 220.400 C 146.800 219.960,146.980 219.600,147.200 219.600 C 147.420 219.600,147.600 218.970,147.600 218.200 C 147.600 217.430,147.780 216.800,148.000 216.800 C 148.220 216.800,148.400 216.459,148.400 216.043 C 148.400 215.626,148.670 215.182,149.000 215.055 C 149.351 214.921,149.600 214.321,149.600 213.613 C 149.600 212.946,149.780 212.400,150.000 212.400 C 150.220 212.400,150.400 212.051,150.400 211.624 C 150.400 211.197,150.580 210.736,150.800 210.600 C 151.020 210.464,151.200 210.003,151.200 209.576 C 151.200 209.149,151.380 208.800,151.600 208.800 C 151.820 208.800,152.000 208.170,152.000 207.400 C 152.000 206.630,152.180 206.000,152.400 206.000 C 152.620 206.000,152.800 205.659,152.800 205.243 C 152.800 204.826,153.070 204.382,153.400 204.255 C 153.751 204.121,154.000 203.521,154.000 202.813 C 154.000 202.146,154.180 201.600,154.400 201.600 C 154.620 201.600,154.800 201.240,154.800 200.800 C 154.800 200.360,154.980 200.000,155.200 200.000 C 155.420 200.000,155.600 199.370,155.600 198.600 C 155.600 197.830,155.780 197.200,156.000 197.200 C 156.220 197.200,156.400 196.917,156.400 196.571 C 156.400 196.226,156.670 195.673,157.000 195.343 C 157.330 195.013,157.600 194.306,157.600 193.771 C 157.600 193.237,157.780 192.800,158.000 192.800 C 158.220 192.800,158.400 192.451,158.400 192.024 C 158.400 191.597,158.580 191.136,158.800 191.000 C 159.020 190.864,159.200 190.223,159.200 189.576 C 159.200 188.929,159.380 188.400,159.600 188.400 C 159.820 188.400,160.000 188.040,160.000 187.600 C 160.000 187.160,160.180 186.800,160.400 186.800 C 160.620 186.800,160.800 186.170,160.800 185.400 C 160.800 184.422,160.981 184.000,161.400 184.000 C 161.730 184.000,162.000 183.651,162.000 183.224 C 162.000 182.797,162.180 182.336,162.400 182.200 C 162.620 182.064,162.800 181.423,162.800 180.776 C 162.800 180.129,162.980 179.600,163.200 179.600 C 163.420 179.600,163.600 179.251,163.600 178.824 C 163.600 178.397,163.780 177.936,164.000 177.800 C 164.220 177.664,164.400 177.043,164.400 176.419 C 164.400 175.781,164.662 175.185,165.000 175.055 C 165.330 174.929,165.600 174.459,165.600 174.013 C 165.600 173.566,165.780 173.200,166.000 173.200 C 166.220 173.200,166.400 172.660,166.400 172.000 C 166.400 171.340,166.580 170.800,166.800 170.800 C 167.020 170.800,167.200 170.350,167.200 169.800 C 167.200 169.250,167.380 168.800,167.600 168.800 C 167.820 168.800,168.000 168.260,168.000 167.600 C 168.000 166.940,168.180 166.400,168.400 166.400 C 168.620 166.400,168.800 165.950,168.800 165.400 C 168.800 164.778,169.027 164.400,169.400 164.400 C 169.800 164.400,170.000 164.000,170.000 163.200 C 170.000 162.540,170.180 162.000,170.400 162.000 C 170.620 162.000,170.800 161.550,170.800 161.000 C 170.800 160.450,170.980 160.000,171.200 160.000 C 171.420 160.000,171.600 159.460,171.600 158.800 C 171.600 158.140,171.780 157.600,172.000 157.600 C 172.220 157.600,172.400 157.150,172.400 156.600 C 172.400 156.050,172.580 155.600,172.800 155.600 C 173.020 155.600,173.200 155.259,173.200 154.843 C 173.200 154.426,173.470 153.982,173.800 153.855 C 174.151 153.721,174.400 153.121,174.400 152.413 C 174.400 151.746,174.580 151.200,174.800 151.200 C 175.020 151.200,175.200 150.851,175.200 150.424 C 175.200 149.997,175.380 149.536,175.600 149.400 C 175.820 149.264,176.000 148.623,176.000 147.976 C 176.000 147.329,176.180 146.800,176.400 146.800 C 176.620 146.800,176.800 146.427,176.800 145.971 C 176.800 145.516,177.070 144.873,177.400 144.543 C 177.730 144.213,178.000 143.596,178.000 143.171 C 178.000 142.747,178.180 142.400,178.400 142.400 C 178.620 142.400,178.800 141.950,178.800 141.400 C 178.800 140.850,178.980 140.400,179.200 140.400 C 179.420 140.400,179.600 139.860,179.600 139.200 C 179.600 138.540,179.780 138.000,180.000 138.000 C 180.220 138.000,180.400 137.550,180.400 137.000 C 180.400 136.450,180.580 136.000,180.800 136.000 C 181.020 136.000,181.200 135.460,181.200 134.800 C 181.200 134.000,181.400 133.600,181.800 133.600 C 182.173 133.600,182.400 133.222,182.400 132.600 C 182.400 132.050,182.580 131.600,182.800 131.600 C 183.020 131.600,183.200 131.060,183.200 130.400 C 183.200 129.740,183.380 129.200,183.600 129.200 C 183.820 129.200,184.000 128.750,184.000 128.200 C 184.000 127.650,184.180 127.200,184.400 127.200 C 184.620 127.200,184.800 126.679,184.800 126.043 C 184.800 125.383,185.058 124.787,185.400 124.655 C 185.730 124.529,186.000 124.059,186.000 123.613 C 186.000 123.166,186.180 122.800,186.400 122.800 C 186.620 122.800,186.800 122.170,186.800 121.400 C 186.800 120.630,186.980 120.000,187.200 120.000 C 187.420 120.000,187.600 119.640,187.600 119.200 C 187.600 118.760,187.780 118.400,188.000 118.400 C 188.220 118.400,188.400 117.770,188.400 117.000 C 188.400 116.230,188.580 115.600,188.800 115.600 C 189.020 115.600,189.200 115.259,189.200 114.843 C 189.200 114.426,189.470 113.982,189.800 113.855 C 190.151 113.721,190.400 113.121,190.400 112.413 C 190.400 111.746,190.580 111.200,190.800 111.200 C 191.020 111.200,191.200 110.840,191.200 110.400 C 191.200 109.960,191.380 109.600,191.600 109.600 C 191.820 109.600,192.000 108.970,192.000 108.200 C 192.000 107.430,192.180 106.800,192.400 106.800 C 192.620 106.800,192.800 106.440,192.800 106.000 C 192.800 105.560,192.980 105.200,193.200 105.200 C 193.420 105.200,193.600 104.570,193.600 103.800 C 193.600 102.822,193.781 102.400,194.200 102.400 C 194.533 102.400,194.800 102.044,194.800 101.600 C 194.800 101.160,194.980 100.800,195.200 100.800 C 195.420 100.800,195.600 100.361,195.600 99.824 C 195.600 99.287,195.780 98.736,196.000 98.600 C 196.220 98.464,196.400 97.913,196.400 97.376 C 196.400 96.839,196.580 96.400,196.800 96.400 C 197.020 96.400,197.200 95.950,197.200 95.400 C 197.200 94.850,197.372 94.400,197.582 94.400 C 197.792 94.400,198.082 93.770,198.226 93.000 C 198.371 92.230,198.649 91.600,198.845 91.600 C 199.040 91.600,199.200 91.255,199.200 90.833 C 199.200 90.412,199.386 90.005,199.613 89.929 C 199.894 89.835,199.889 89.349,199.597 88.396 C 199.362 87.628,198.985 86.370,198.758 85.600 C 198.532 84.830,198.179 83.795,197.974 83.300 C 197.768 82.805,197.439 81.995,197.241 81.500 C 197.044 81.005,196.414 79.560,195.841 78.289 C 195.269 77.018,194.800 75.801,194.800 75.584 C 194.800 75.367,194.641 74.877,194.447 74.495 C 194.252 74.113,193.911 73.350,193.687 72.800 C 193.464 72.250,192.993 71.143,192.641 70.340 C 192.288 69.536,192.000 68.769,192.000 68.635 C 192.000 68.501,191.622 67.538,191.160 66.496 C 190.698 65.453,190.182 64.240,190.014 63.800 C 189.845 63.360,189.520 62.550,189.291 62.000 C 189.062 61.450,188.592 60.243,188.247 59.317 C 187.564 57.485,186.152 54.212,185.567 53.105 C 185.365 52.723,185.200 52.048,185.200 51.605 C 185.200 51.162,185.020 50.800,184.800 50.800 C 184.580 50.800,184.400 50.474,184.400 50.075 C 184.400 49.676,183.950 48.417,183.400 47.277 C 182.850 46.137,182.400 44.969,182.400 44.682 C 182.400 44.395,182.230 43.989,182.022 43.780 C 181.813 43.571,181.498 41.782,181.322 39.805 C 181.057 36.852,180.875 36.185,180.300 36.075 C 179.821 35.984,179.600 36.195,179.600 36.747 " stroke="none" fill="#8c1434" fill-rule="evenodd"></path><path id="path1" d="M195.700 0.282 C 195.205 0.378,194.778 0.623,194.750 0.828 C 194.722 1.033,194.678 1.387,194.650 1.615 C 194.623 1.843,194.369 2.172,194.086 2.347 C 193.777 2.538,193.686 2.958,193.856 3.401 C 194.069 3.956,193.990 4.082,193.536 3.908 C 193.079 3.732,192.949 3.948,193.000 4.800 C 193.051 5.652,192.921 5.868,192.464 5.692 C 192.040 5.530,191.932 5.645,192.099 6.081 C 192.230 6.422,192.081 7.193,191.768 7.796 C 191.456 8.398,191.200 9.231,191.200 9.646 C 191.200 10.061,191.020 10.400,190.800 10.400 C 190.580 10.400,190.400 10.831,190.400 11.357 C 190.400 11.884,190.126 12.420,189.790 12.548 C 189.350 12.717,189.256 13.082,189.450 13.857 C 189.674 14.748,189.607 14.888,189.060 14.678 C 188.548 14.482,188.397 14.669,188.387 15.513 C 188.380 16.111,188.116 16.942,187.800 17.359 C 187.484 17.776,187.320 18.271,187.436 18.459 C 187.552 18.647,187.457 18.800,187.224 18.800 C 186.991 18.800,186.800 19.340,186.800 20.000 C 186.800 20.660,186.620 21.200,186.400 21.200 C 186.180 21.200,185.994 21.605,185.987 22.100 C 185.972 23.159,185.123 24.400,184.413 24.400 C 184.126 24.400,184.016 24.664,184.153 25.022 C 184.285 25.365,184.130 26.271,183.810 27.037 C 183.490 27.803,183.390 28.330,183.587 28.208 C 184.191 27.835,184.500 28.798,183.977 29.427 C 183.707 29.753,183.595 30.129,183.729 30.262 C 183.863 30.396,183.770 30.882,183.523 31.343 C 182.329 33.575,181.969 39.913,182.873 42.800 C 183.596 45.110,184.493 47.412,185.247 48.895 C 185.441 49.277,185.600 49.952,185.600 50.395 C 185.600 50.838,185.780 51.200,186.000 51.200 C 186.220 51.200,186.400 51.398,186.400 51.640 C 186.400 51.881,186.688 52.736,187.041 53.540 C 187.393 54.343,187.864 55.450,188.087 56.000 C 188.311 56.550,188.652 57.313,188.847 57.695 C 189.041 58.077,189.200 58.752,189.200 59.195 C 189.200 59.638,189.380 60.000,189.600 60.000 C 189.820 60.000,190.000 60.428,190.000 60.951 C 190.000 61.474,190.270 62.126,190.600 62.400 C 190.930 62.674,191.200 63.148,191.200 63.454 C 191.200 63.760,191.380 64.368,191.600 64.805 C 191.820 65.242,192.180 65.958,192.400 66.395 C 192.620 66.832,192.800 67.552,192.800 67.995 C 192.800 68.438,192.980 68.800,193.200 68.800 C 193.420 68.800,193.600 69.239,193.600 69.776 C 193.600 70.313,193.748 70.844,193.929 70.956 C 194.110 71.068,194.754 72.473,195.361 74.080 C 195.969 75.686,196.631 77.405,196.833 77.900 C 197.035 78.395,197.365 79.205,197.568 79.700 C 197.770 80.195,198.400 81.624,198.968 82.875 C 199.743 84.584,200.000 85.807,200.000 87.788 C 200.000 89.786,200.148 90.482,200.612 90.660 C 200.976 90.800,201.135 91.176,201.003 91.591 C 200.881 91.974,201.031 92.494,201.335 92.746 C 201.657 93.013,201.807 93.630,201.694 94.219 C 201.560 94.920,201.663 95.197,202.026 95.117 C 202.316 95.052,202.620 95.360,202.703 95.800 C 202.848 96.569,203.497 98.165,204.613 100.500 C 204.902 101.105,204.972 101.600,204.769 101.600 C 204.566 101.600,204.400 101.774,204.400 101.987 C 204.400 102.201,204.656 102.277,204.969 102.156 C 205.350 102.010,205.503 102.177,205.432 102.661 C 205.374 103.058,205.568 103.625,205.863 103.920 C 206.158 104.216,206.400 104.789,206.400 105.195 C 206.400 105.601,206.591 105.997,206.824 106.075 C 207.057 106.152,207.265 106.791,207.285 107.494 C 207.305 108.197,207.474 108.678,207.660 108.563 C 207.847 108.447,208.000 108.619,208.000 108.944 C 208.000 109.552,209.196 112.042,209.660 112.400 C 209.803 112.510,209.852 113.178,209.769 113.884 C 209.658 114.839,209.758 115.114,210.161 114.960 C 210.523 114.821,210.789 115.190,210.964 116.076 C 211.109 116.804,211.566 118.117,211.980 118.992 C 212.394 119.868,212.647 120.723,212.543 120.892 C 212.438 121.062,212.554 121.200,212.800 121.200 C 213.046 121.200,213.136 121.380,213.000 121.600 C 212.864 121.820,212.938 122.000,213.164 122.000 C 213.390 122.000,213.472 122.268,213.346 122.597 C 213.219 122.929,213.384 123.296,213.719 123.424 C 214.050 123.551,214.277 123.954,214.224 124.319 C 214.170 124.685,214.368 125.225,214.663 125.520 C 214.958 125.816,215.200 126.494,215.200 127.029 C 215.200 127.563,215.380 128.000,215.600 128.000 C 215.820 128.000,216.000 128.349,216.000 128.776 C 216.000 129.203,216.183 129.666,216.407 129.804 C 216.630 129.942,216.723 130.202,216.612 130.381 C 216.501 130.560,216.768 131.161,217.205 131.716 C 217.642 132.272,218.000 132.977,218.000 133.283 C 218.000 133.589,218.174 134.014,218.387 134.227 C 218.599 134.439,218.816 135.183,218.869 135.879 C 218.923 136.575,219.109 137.056,219.283 136.949 C 219.457 136.841,219.600 137.224,219.600 137.800 C 219.600 138.396,219.772 138.741,220.000 138.600 C 220.241 138.451,220.400 138.992,220.400 139.964 C 220.400 141.237,220.527 141.526,221.005 141.343 C 221.421 141.183,221.538 141.295,221.382 141.704 C 221.256 142.030,221.415 142.558,221.735 142.878 C 222.086 143.228,222.235 143.883,222.111 144.529 C 221.958 145.333,222.068 145.600,222.553 145.600 C 222.976 145.600,223.200 145.946,223.200 146.600 C 223.200 147.150,223.380 147.600,223.600 147.600 C 223.820 147.600,224.000 148.151,224.000 148.824 C 224.000 149.537,224.167 149.944,224.400 149.800 C 224.740 149.590,225.004 150.709,224.847 151.700 C 224.821 151.865,225.115 152.013,225.500 152.028 C 226.099 152.052,226.084 152.106,225.400 152.400 C 224.775 152.668,224.744 152.750,225.257 152.772 C 225.619 152.787,226.022 153.079,226.153 153.421 C 226.284 153.762,226.243 153.950,226.062 153.838 C 225.881 153.727,225.733 153.880,225.733 154.179 C 225.733 154.479,225.973 154.632,226.267 154.519 C 226.604 154.390,226.800 154.615,226.800 155.134 C 226.800 155.584,226.980 156.064,227.200 156.200 C 227.420 156.336,227.600 157.077,227.600 157.847 C 227.600 158.679,227.762 159.147,228.000 159.000 C 228.220 158.864,228.400 159.113,228.400 159.553 C 228.400 159.993,228.580 160.464,228.800 160.600 C 229.020 160.736,229.200 161.267,229.200 161.781 C 229.200 162.294,229.474 162.820,229.810 162.948 C 230.237 163.112,230.344 163.484,230.166 164.191 C 229.987 164.907,230.075 165.200,230.469 165.200 C 230.951 165.200,232.191 168.214,232.198 169.400 C 232.199 169.620,232.344 169.906,232.520 170.036 C 232.696 170.166,232.869 170.656,232.904 171.126 C 232.940 171.595,233.186 172.063,233.452 172.165 C 233.718 172.267,233.886 172.795,233.826 173.340 C 233.752 174.017,233.882 174.267,234.239 174.130 C 234.606 173.989,234.707 174.223,234.580 174.922 C 234.464 175.563,234.613 175.996,235.000 176.145 C 235.330 176.271,235.600 176.831,235.600 177.387 C 235.600 177.944,235.780 178.400,236.000 178.400 C 236.220 178.400,236.400 178.749,236.400 179.176 C 236.400 179.603,236.580 180.064,236.800 180.200 C 237.020 180.336,237.200 180.803,237.200 181.238 C 237.200 181.672,237.490 182.470,237.844 183.011 C 238.198 183.552,238.376 184.285,238.239 184.641 C 238.074 185.073,238.165 185.222,238.512 185.089 C 238.848 184.960,239.064 185.264,239.120 185.945 C 239.168 186.525,239.385 187.060,239.603 187.133 C 239.822 187.207,240.000 187.702,240.000 188.233 C 240.000 188.765,240.180 189.200,240.400 189.200 C 240.620 189.200,240.800 189.740,240.800 190.400 C 240.800 191.060,240.980 191.600,241.200 191.600 C 241.420 191.600,241.600 191.857,241.600 192.171 C 241.600 192.486,241.837 192.981,242.128 193.271 C 242.747 193.892,243.294 195.705,242.763 195.377 C 242.563 195.254,242.400 195.343,242.400 195.576 C 242.400 195.809,242.670 196.000,243.000 196.000 C 243.577 196.000,243.801 196.878,243.662 198.600 C 243.618 199.146,243.701 199.240,243.925 198.896 C 244.139 198.566,244.491 199.152,244.946 200.596 C 245.328 201.808,245.826 202.800,246.052 202.800 C 246.296 202.800,246.371 203.329,246.236 204.100 C 246.112 204.815,246.113 205.174,246.239 204.898 C 246.588 204.133,247.200 204.723,247.200 205.824 C 247.200 206.361,247.380 206.800,247.600 206.800 C 247.820 206.800,248.000 207.325,248.000 207.967 C 248.000 208.608,248.164 209.193,248.363 209.267 C 248.563 209.340,248.788 209.760,248.863 210.200 C 248.939 210.640,249.225 211.238,249.500 211.529 C 249.800 211.846,249.897 212.473,249.740 213.095 C 249.523 213.961,249.593 214.088,250.166 213.868 C 250.703 213.662,250.800 213.769,250.614 214.355 C 250.464 214.827,250.603 215.192,250.988 215.340 C 251.325 215.469,251.600 216.001,251.600 216.521 C 251.600 217.041,251.735 217.602,251.900 217.767 C 252.065 217.932,252.209 218.187,252.220 218.333 C 252.276 219.104,252.900 220.400,253.214 220.400 C 253.413 220.400,253.464 220.688,253.329 221.040 C 253.194 221.393,253.294 221.811,253.551 221.970 C 253.808 222.129,254.092 222.639,254.181 223.103 C 254.271 223.568,254.512 224.275,254.718 224.674 C 254.924 225.073,255.011 225.625,254.913 225.900 C 254.814 226.175,255.018 226.400,255.367 226.400 C 255.715 226.400,256.000 226.591,256.000 226.824 C 256.000 227.057,255.820 227.136,255.600 227.000 C 255.380 226.864,255.200 226.943,255.200 227.176 C 255.200 227.409,255.380 227.600,255.600 227.600 C 255.820 227.600,256.000 227.881,256.000 228.224 C 256.000 228.567,256.180 228.736,256.400 228.600 C 256.620 228.464,256.822 228.633,256.850 228.976 C 256.927 229.935,256.989 230.163,257.308 230.664 C 257.470 230.920,257.641 231.590,257.688 232.155 C 257.735 232.719,258.004 233.269,258.286 233.378 C 258.569 233.486,258.800 233.930,258.800 234.364 C 258.800 234.798,258.980 235.264,259.200 235.400 C 259.420 235.536,259.600 236.177,259.600 236.824 C 259.600 237.471,259.780 238.000,260.000 238.000 C 260.220 238.000,260.400 238.349,260.400 238.776 C 260.400 239.203,260.580 239.664,260.800 239.800 C 261.020 239.936,261.200 240.397,261.200 240.824 C 261.200 241.251,261.380 241.600,261.600 241.600 C 261.820 241.600,262.000 242.125,262.000 242.767 C 262.000 243.408,262.203 244.001,262.450 244.083 C 262.697 244.166,262.900 244.721,262.900 245.317 C 262.900 245.969,263.119 246.400,263.450 246.400 C 263.757 246.400,264.000 246.806,264.000 247.320 C 264.000 247.826,264.179 248.419,264.398 248.638 C 264.616 248.856,264.837 249.534,264.887 250.143 C 264.937 250.752,265.198 251.432,265.466 251.654 C 265.733 251.877,265.851 252.323,265.727 252.646 C 265.590 253.003,265.710 253.187,266.035 253.116 C 266.328 253.052,266.593 253.362,266.625 253.805 C 266.656 254.249,266.983 255.194,267.351 255.905 C 267.719 256.617,267.881 257.203,267.710 257.206 C 267.540 257.209,267.645 257.368,267.945 257.557 C 268.244 257.747,268.512 258.449,268.539 259.117 C 268.566 259.784,268.726 260.246,268.894 260.142 C 269.193 259.957,269.349 260.548,269.240 261.454 C 269.210 261.704,269.478 262.021,269.835 262.158 C 270.291 262.333,270.413 262.694,270.245 263.364 C 270.069 264.064,270.270 264.573,270.995 265.260 C 271.540 265.777,271.989 266.427,271.993 266.705 C 271.997 266.983,272.162 267.523,272.361 267.905 C 272.865 268.874,273.635 271.620,273.710 272.710 C 273.745 273.232,273.974 273.542,274.248 273.437 C 274.549 273.321,274.685 273.606,274.618 274.216 C 274.560 274.745,274.667 275.082,274.856 274.965 C 275.045 274.848,275.200 275.213,275.200 275.776 C 275.200 276.420,275.423 276.800,275.800 276.800 C 276.159 276.800,276.400 277.169,276.400 277.720 C 276.400 278.226,276.625 278.882,276.900 279.179 C 277.302 279.612,277.296 279.659,276.870 279.417 C 276.353 279.123,276.989 280.631,277.623 281.200 C 278.028 281.564,278.989 284.192,278.887 284.654 C 278.831 284.904,279.059 285.214,279.393 285.342 C 279.802 285.499,280.000 286.122,280.000 287.254 C 280.000 288.178,280.123 288.810,280.273 288.660 C 280.664 288.269,281.600 290.674,281.600 292.070 C 281.600 292.717,281.761 293.148,281.958 293.026 C 282.416 292.743,282.887 293.935,282.539 294.498 C 282.384 294.749,282.466 294.806,282.738 294.638 C 283.008 294.472,283.200 294.599,283.200 294.944 C 283.200 295.269,283.500 296.135,283.868 296.868 C 285.107 299.340,285.200 299.587,285.200 300.395 C 285.200 300.838,285.342 301.200,285.515 301.200 C 285.688 301.200,285.857 301.563,285.890 302.006 C 285.924 302.449,286.323 303.285,286.778 303.862 C 287.417 304.675,287.500 305.038,287.145 305.466 C 286.781 305.905,286.821 305.967,287.343 305.766 C 287.814 305.586,288.000 305.736,288.000 306.296 C 288.000 306.725,288.282 307.642,288.627 308.333 C 288.971 309.024,289.124 309.800,288.965 310.057 C 288.785 310.348,288.850 310.416,289.138 310.238 C 289.510 310.008,289.729 310.342,289.572 310.900 C 289.556 310.955,289.817 311.527,290.151 312.171 C 290.486 312.816,290.679 313.472,290.582 313.629 C 290.484 313.787,290.666 314.017,290.986 314.139 C 291.369 314.286,291.515 314.773,291.414 315.571 C 291.319 316.316,291.432 316.745,291.707 316.690 C 291.952 316.640,292.229 316.960,292.323 317.400 C 292.416 317.840,292.646 318.297,292.833 318.416 C 293.021 318.534,293.218 319.197,293.270 319.888 C 293.323 320.579,293.509 321.056,293.683 320.949 C 293.857 320.841,294.000 321.204,294.000 321.757 C 294.000 322.309,294.295 322.926,294.657 323.128 C 295.100 323.376,295.249 323.833,295.114 324.535 C 295.005 325.108,295.070 325.481,295.258 325.364 C 295.446 325.248,295.621 325.388,295.646 325.676 C 295.672 325.964,295.717 326.431,295.746 326.713 C 295.776 326.996,296.053 327.383,296.362 327.575 C 296.671 327.767,296.908 328.481,296.889 329.162 C 296.869 329.843,297.021 330.400,297.227 330.400 C 297.432 330.400,297.600 330.676,297.600 331.013 C 297.600 331.349,297.848 331.720,298.150 331.836 C 298.453 331.952,298.700 332.524,298.700 333.107 C 298.700 333.690,298.892 334.231,299.128 334.309 C 299.363 334.388,299.465 334.687,299.355 334.974 C 299.244 335.262,299.434 335.777,299.777 336.120 C 300.120 336.463,300.400 337.116,300.400 337.571 C 300.400 338.027,300.625 338.403,300.900 338.406 C 301.233 338.410,301.200 338.542,300.800 338.800 C 300.470 339.013,300.381 339.191,300.602 339.194 C 301.113 339.202,301.969 341.112,302.083 342.500 C 302.132 343.084,302.250 343.483,302.346 343.387 C 302.620 343.113,303.611 345.225,303.697 346.265 C 303.740 346.779,304.005 347.200,304.287 347.200 C 304.569 347.200,304.800 347.610,304.800 348.111 C 304.800 348.612,305.080 349.422,305.423 349.911 C 305.765 350.400,305.923 350.800,305.774 350.800 C 305.624 350.800,305.726 351.070,306.000 351.400 C 306.274 351.730,306.382 352.000,306.241 352.000 C 306.099 352.000,306.360 352.737,306.820 353.639 C 307.280 354.540,307.562 355.521,307.448 355.818 C 307.315 356.167,307.447 356.280,307.820 356.137 C 308.343 355.936,308.669 357.198,308.437 358.530 C 308.406 358.711,308.565 358.745,308.790 358.606 C 309.029 358.458,309.200 358.779,309.200 359.376 C 309.200 359.939,309.336 360.400,309.502 360.400 C 309.978 360.400,311.733 365.267,311.733 366.586 C 311.733 366.899,311.928 367.121,312.167 367.078 C 312.405 367.035,312.657 367.495,312.727 368.100 C 312.796 368.705,313.021 369.200,313.227 369.200 C 313.432 369.200,313.600 369.524,313.600 369.920 C 313.600 370.316,313.779 370.819,313.998 371.038 C 314.216 371.256,314.435 371.910,314.483 372.489 C 314.531 373.069,314.757 373.511,314.985 373.472 C 315.213 373.432,315.403 373.691,315.406 374.046 C 315.409 374.401,315.642 374.969,315.923 375.308 C 316.229 375.676,316.330 376.340,316.174 376.962 C 315.980 377.733,316.067 378.000,316.512 378.000 C 316.872 378.000,317.209 378.522,317.356 379.307 C 317.491 380.026,317.969 381.300,318.418 382.138 C 318.881 383.002,319.129 383.993,318.991 384.428 C 318.797 385.041,318.894 385.142,319.474 384.934 C 319.873 384.790,320.071 384.815,319.914 384.989 C 319.757 385.163,319.892 385.681,320.214 386.142 C 320.536 386.602,320.800 387.388,320.800 387.889 C 320.800 388.390,320.980 388.800,321.200 388.800 C 321.420 388.800,321.600 389.239,321.600 389.776 C 321.600 390.313,321.780 390.864,322.000 391.000 C 322.220 391.136,322.400 391.787,322.400 392.447 C 322.400 393.107,322.561 393.548,322.758 393.426 C 323.168 393.172,323.704 394.308,323.404 394.794 C 323.294 394.971,323.471 395.218,323.796 395.343 C 324.158 395.482,324.287 395.830,324.128 396.243 C 323.969 396.657,324.141 397.114,324.575 397.431 C 324.963 397.715,325.181 398.108,325.059 398.304 C 324.938 398.500,325.276 399.526,325.811 400.582 C 326.346 401.639,326.701 402.637,326.600 402.800 C 326.499 402.963,326.760 403.493,327.180 403.977 C 327.600 404.461,327.876 405.204,327.795 405.628 C 327.703 406.103,327.868 406.400,328.223 406.400 C 328.568 406.400,328.800 406.792,328.800 407.376 C 328.800 407.913,328.980 408.464,329.200 408.600 C 329.420 408.736,329.600 409.377,329.600 410.024 C 329.600 410.671,329.780 411.200,330.000 411.200 C 330.220 411.200,330.400 411.545,330.400 411.967 C 330.400 412.388,330.574 412.793,330.787 412.867 C 331.000 412.940,331.217 413.565,331.269 414.256 C 331.323 414.975,331.552 415.440,331.803 415.344 C 332.089 415.234,332.191 415.702,332.095 416.687 C 331.988 417.797,332.056 418.043,332.353 417.611 C 332.694 417.114,332.796 417.145,333.011 417.811 C 333.151 418.245,333.463 419.050,333.704 419.600 C 333.945 420.150,334.171 420.690,334.206 420.800 C 334.241 420.910,334.375 421.270,334.504 421.600 C 335.079 423.068,335.757 425.426,335.682 425.700 C 335.637 425.865,335.884 426.000,336.232 426.000 C 336.726 426.000,336.806 426.262,336.600 427.200 C 336.394 428.138,336.474 428.400,336.968 428.400 C 337.327 428.400,337.600 428.736,337.600 429.176 C 337.600 429.603,337.780 430.064,338.000 430.200 C 338.220 430.336,338.400 430.627,338.400 430.847 C 338.400 431.067,338.185 431.114,337.921 430.951 C 337.658 430.789,337.838 431.211,338.321 431.890 C 338.805 432.568,339.200 433.389,339.200 433.713 C 339.200 434.037,339.441 434.502,339.736 434.747 C 340.031 434.991,340.241 435.716,340.203 436.358 C 340.153 437.183,340.289 437.464,340.667 437.319 C 341.041 437.175,341.200 437.488,341.200 438.371 C 341.200 439.063,341.491 440.072,341.846 440.614 C 342.201 441.156,342.336 441.603,342.146 441.606 C 341.956 441.609,341.980 441.744,342.200 441.906 C 342.798 442.345,343.600 443.902,343.600 444.623 C 343.600 444.972,343.854 445.511,344.164 445.822 C 344.475 446.132,344.634 446.749,344.518 447.193 C 344.370 447.757,344.502 448.000,344.953 448.000 C 345.568 448.000,345.766 448.425,345.637 449.470 C 345.605 449.728,345.764 450.054,345.989 450.193 C 346.215 450.333,346.400 450.887,346.400 451.424 C 346.400 451.961,346.580 452.400,346.800 452.400 C 347.020 452.400,347.200 452.831,347.200 453.357 C 347.200 453.884,347.482 454.422,347.826 454.554 C 348.170 454.687,348.395 455.128,348.326 455.536 C 348.257 455.944,348.390 456.530,348.622 456.839 C 349.544 458.067,349.979 459.539,349.479 459.742 C 349.121 459.888,349.126 459.945,349.500 459.968 C 349.775 459.986,350.000 460.270,350.000 460.600 C 350.000 460.930,350.180 461.200,350.400 461.200 C 350.620 461.200,350.800 461.639,350.800 462.176 C 350.800 462.713,350.983 463.266,351.207 463.404 C 351.430 463.542,351.517 463.810,351.400 464.000 C 351.283 464.190,351.373 464.460,351.600 464.600 C 351.827 464.740,351.909 465.023,351.783 465.228 C 351.656 465.432,351.743 465.600,351.976 465.600 C 352.209 465.600,352.400 466.140,352.400 466.800 C 352.400 467.460,352.591 468.000,352.824 468.000 C 353.057 468.000,353.119 467.792,352.962 467.538 C 352.779 467.243,352.853 467.185,353.165 467.379 C 353.434 467.545,353.565 467.914,353.456 468.199 C 353.346 468.484,353.594 469.346,354.006 470.115 C 354.417 470.883,354.645 471.622,354.511 471.756 C 354.376 471.890,354.499 472.000,354.782 472.000 C 355.190 472.000,355.183 472.142,354.749 472.677 C 354.376 473.137,354.360 473.257,354.700 473.053 C 355.035 472.852,355.200 473.024,355.200 473.576 C 355.200 474.029,355.380 474.400,355.600 474.400 C 355.820 474.400,356.000 474.850,356.000 475.400 C 356.000 476.045,356.225 476.400,356.632 476.400 C 357.119 476.400,357.206 476.662,357.011 477.549 C 356.827 478.386,356.928 478.763,357.379 478.937 C 357.787 479.093,358.002 479.694,358.006 480.687 C 358.011 481.811,358.112 482.046,358.400 481.600 C 358.722 481.102,358.790 481.137,358.799 481.800 C 358.805 482.240,359.227 483.329,359.736 484.220 C 360.246 485.112,360.635 486.226,360.600 486.698 C 360.565 487.169,360.707 487.520,360.914 487.477 C 361.121 487.435,361.365 487.846,361.457 488.391 C 361.548 488.937,361.798 489.558,362.011 489.771 C 362.225 489.985,362.400 490.754,362.400 491.480 C 362.400 492.206,362.547 492.800,362.726 492.800 C 363.239 492.800,364.444 495.605,364.141 496.095 C 363.962 496.385,364.113 496.442,364.582 496.262 C 365.173 496.035,365.263 496.159,365.106 496.982 C 365.001 497.529,365.050 497.893,365.214 497.791 C 365.378 497.690,365.831 498.100,366.221 498.703 C 366.611 499.307,367.360 500.206,367.887 500.702 C 368.418 501.202,368.718 501.808,368.561 502.064 C 368.384 502.350,368.453 502.415,368.745 502.234 C 369.002 502.075,369.099 501.732,368.960 501.472 C 368.820 501.213,369.153 501.495,369.700 502.100 C 370.246 502.705,370.897 503.200,371.147 503.200 C 371.396 503.200,371.600 503.351,371.600 503.536 C 371.600 503.928,373.636 504.980,374.150 504.853 C 374.343 504.806,374.793 505.011,375.150 505.310 C 376.477 506.419,388.046 506.501,387.866 505.400 C 387.829 505.180,388.301 505.010,388.913 505.023 C 389.671 505.038,389.962 504.879,389.826 504.523 C 389.715 504.235,389.892 504.000,390.218 504.000 C 390.873 504.000,392.269 503.276,393.117 502.496 C 393.418 502.219,393.858 502.112,394.094 502.258 C 394.330 502.404,394.410 502.340,394.271 502.115 C 393.951 501.597,395.352 500.296,395.797 500.699 C 395.979 500.865,396.008 500.790,395.860 500.532 C 395.713 500.275,395.819 499.822,396.096 499.525 C 396.850 498.718,398.087 496.400,397.764 496.400 C 397.610 496.400,397.914 495.995,398.442 495.500 C 400.140 493.905,400.508 481.234,398.874 480.607 C 398.567 480.489,398.423 480.118,398.552 479.781 C 398.685 479.435,398.529 479.071,398.193 478.942 C 397.867 478.817,397.600 478.294,397.600 477.781 C 397.600 477.267,397.420 476.736,397.200 476.600 C 396.980 476.464,396.800 476.115,396.800 475.825 C 396.800 475.535,396.497 474.601,396.126 473.749 C 395.756 472.897,395.498 471.957,395.553 471.660 C 395.615 471.326,395.467 471.235,395.165 471.422 C 394.873 471.602,394.779 471.557,394.932 471.310 C 395.072 471.083,394.908 470.338,394.567 469.654 C 394.226 468.970,394.062 468.223,394.203 467.995 C 394.344 467.767,394.221 467.630,393.930 467.690 C 393.608 467.757,393.348 467.344,393.268 466.639 C 393.195 466.000,392.895 465.238,392.602 464.945 C 392.309 464.652,392.118 463.964,392.178 463.417 C 392.238 462.870,392.133 462.518,391.944 462.635 C 391.631 462.828,391.433 462.255,391.553 461.500 C 391.579 461.335,391.456 461.200,391.279 461.200 C 390.775 461.200,389.498 457.289,389.828 456.755 C 390.015 456.451,389.954 456.381,389.659 456.564 C 389.387 456.731,389.100 456.549,388.968 456.125 C 388.843 455.726,388.575 455.087,388.371 454.705 C 388.167 454.323,388.000 453.820,388.000 453.586 C 388.000 453.352,387.645 452.426,387.210 451.526 C 386.776 450.627,386.516 449.736,386.634 449.546 C 386.751 449.356,386.649 449.200,386.406 449.200 C 386.163 449.200,386.018 448.885,386.082 448.500 C 386.148 448.109,385.979 447.844,385.700 447.900 C 385.414 447.957,385.200 447.600,385.200 447.067 C 385.200 446.553,385.081 446.014,384.935 445.868 C 384.519 445.453,383.230 441.600,383.506 441.600 C 383.642 441.600,383.449 441.375,383.077 441.100 C 382.706 440.825,382.362 440.105,382.314 439.500 C 382.265 438.895,382.074 438.400,381.889 438.400 C 381.704 438.400,381.651 438.240,381.772 438.045 C 381.893 437.850,381.723 437.468,381.396 437.196 C 381.068 436.924,380.800 436.375,380.800 435.975 C 380.800 435.575,380.601 435.124,380.357 434.974 C 380.049 434.783,380.079 434.596,380.457 434.356 C 380.857 434.103,380.868 434.011,380.500 434.006 C 380.225 434.003,380.000 433.730,380.000 433.400 C 380.000 433.070,379.820 432.800,379.600 432.800 C 379.380 432.800,379.200 432.361,379.200 431.824 C 379.200 431.287,379.020 430.736,378.800 430.600 C 378.580 430.464,378.400 430.012,378.400 429.596 C 378.400 429.180,378.139 428.693,377.819 428.515 C 377.499 428.336,377.193 427.517,377.137 426.695 C 377.082 425.873,376.893 425.200,376.718 425.200 C 376.543 425.200,376.400 424.855,376.400 424.433 C 376.400 424.012,376.216 423.605,375.992 423.531 C 375.767 423.456,375.542 422.828,375.492 422.136 C 375.441 421.444,375.265 420.961,375.100 421.063 C 374.835 421.225,374.742 420.917,374.827 420.164 C 374.841 420.034,374.543 419.700,374.164 419.423 C 373.727 419.103,373.556 418.611,373.697 418.073 C 373.830 417.562,373.740 417.262,373.468 417.314 C 373.221 417.361,372.954 416.950,372.876 416.400 C 372.797 415.850,372.568 415.229,372.366 415.020 C 372.165 414.811,372.000 414.241,372.000 413.753 C 372.000 413.266,371.816 412.805,371.591 412.730 C 371.366 412.655,371.086 412.061,370.967 411.409 C 370.849 410.758,370.580 410.017,370.369 409.763 C 370.159 409.509,370.099 409.009,370.236 408.651 C 370.400 408.223,370.274 408.000,369.869 408.000 C 369.435 408.000,369.305 407.713,369.430 407.026 C 369.527 406.490,369.397 405.922,369.141 405.764 C 368.833 405.573,368.785 405.652,369.000 406.000 C 369.214 406.346,369.167 406.427,368.862 406.238 C 368.608 406.081,368.400 405.513,368.400 404.976 C 368.400 404.439,368.220 404.000,368.000 404.000 C 367.780 404.000,367.600 403.640,367.600 403.200 C 367.600 402.760,367.398 402.400,367.151 402.400 C 366.858 402.400,366.893 402.164,367.251 401.723 C 367.624 401.263,367.640 401.143,367.300 401.347 C 366.991 401.533,366.800 401.423,366.800 401.061 C 366.800 400.738,366.329 399.512,365.752 398.337 C 364.422 395.624,364.050 394.748,363.911 394.000 C 363.850 393.670,363.620 393.268,363.400 393.106 C 363.165 392.933,363.247 392.807,363.600 392.800 C 363.953 392.793,364.035 392.667,363.800 392.494 C 363.129 392.001,361.940 389.621,362.175 389.241 C 362.296 389.045,362.106 388.773,361.752 388.637 C 361.345 388.481,361.185 388.099,361.317 387.594 C 361.432 387.156,361.316 386.664,361.061 386.499 C 360.534 386.160,359.600 383.698,359.600 382.648 C 359.600 382.266,359.420 382.064,359.200 382.200 C 358.980 382.336,358.779 382.212,358.754 381.924 C 358.673 381.009,358.568 380.627,358.078 379.474 C 357.815 378.855,357.600 378.090,357.600 377.774 C 357.600 377.458,357.420 377.200,357.200 377.200 C 356.980 377.200,356.800 376.876,356.800 376.480 C 356.800 376.084,356.621 375.581,356.402 375.362 C 356.184 375.144,355.965 374.491,355.917 373.911 C 355.870 373.332,355.688 372.945,355.515 373.052 C 355.342 373.160,355.200 372.887,355.200 372.447 C 355.200 372.007,355.020 371.536,354.800 371.400 C 354.580 371.264,354.400 370.728,354.400 370.210 C 354.400 369.691,354.182 369.194,353.916 369.105 C 353.650 369.017,353.403 368.417,353.366 367.772 C 353.330 367.127,353.098 366.645,352.850 366.700 C 352.594 366.757,352.400 366.282,352.400 365.600 C 352.400 364.940,352.220 364.400,352.000 364.400 C 351.780 364.400,351.600 364.128,351.600 363.795 C 351.600 363.462,351.442 362.877,351.249 362.495 C 350.269 360.556,349.609 358.709,349.791 358.414 C 349.903 358.233,349.722 357.979,349.388 357.851 C 348.963 357.688,348.856 357.315,349.034 356.609 C 349.226 355.844,349.131 355.600,348.643 355.600 C 348.224 355.600,348.000 355.252,348.000 354.600 C 348.000 354.050,347.809 353.600,347.576 353.600 C 347.343 353.600,347.269 353.412,347.411 353.182 C 347.553 352.953,347.458 352.511,347.200 352.200 C 346.942 351.889,346.864 351.419,347.027 351.156 C 347.204 350.870,347.154 350.781,346.904 350.935 C 346.671 351.079,346.374 350.752,346.235 350.197 C 346.097 349.649,345.798 349.200,345.569 349.200 C 345.340 349.200,345.266 349.017,345.404 348.793 C 345.542 348.570,345.851 348.508,346.089 348.655 C 346.357 348.821,346.408 348.736,346.222 348.435 C 346.056 348.167,345.821 348.046,345.699 348.167 C 345.394 348.473,344.400 346.475,344.400 345.554 C 344.400 345.139,344.175 344.797,343.900 344.794 C 343.566 344.790,343.599 344.657,344.000 344.394 C 344.453 344.097,344.481 343.923,344.116 343.686 C 343.441 343.249,342.370 340.570,342.716 340.187 C 342.872 340.013,342.775 340.001,342.500 340.159 C 342.155 340.358,342.000 340.129,342.000 339.424 C 342.000 338.861,341.820 338.400,341.600 338.400 C 341.380 338.400,341.200 337.959,341.200 337.420 C 341.200 336.881,340.956 336.296,340.658 336.120 C 340.153 335.822,339.882 335.041,339.331 332.304 C 339.210 331.701,338.951 331.307,338.755 331.428 C 338.560 331.548,338.400 331.227,338.400 330.713 C 338.400 330.199,338.130 329.393,337.800 328.922 C 337.464 328.441,337.319 327.757,337.470 327.363 C 337.677 326.822,337.586 326.720,337.069 326.918 C 336.536 327.123,336.400 326.933,336.400 325.987 C 336.400 325.334,336.220 324.800,336.000 324.800 C 335.780 324.800,335.600 324.350,335.600 323.800 C 335.600 323.250,335.420 322.800,335.200 322.800 C 334.980 322.800,334.800 322.480,334.800 322.089 C 334.800 321.698,334.566 321.023,334.280 320.589 C 333.994 320.155,333.789 319.405,333.825 318.921 C 333.860 318.438,333.644 317.949,333.344 317.834 C 333.045 317.719,332.800 317.274,332.800 316.846 C 332.800 316.417,332.637 316.007,332.438 315.933 C 332.239 315.860,332.014 315.350,331.938 314.800 C 331.862 314.250,331.574 313.561,331.298 313.269 C 331.022 312.977,330.875 312.302,330.971 311.769 C 331.068 311.236,330.992 310.800,330.803 310.800 C 330.289 310.800,329.173 308.367,329.468 307.890 C 329.609 307.662,329.535 307.593,329.304 307.736 C 329.073 307.879,328.775 307.712,328.642 307.365 C 328.259 306.367,328.351 306.263,329.096 306.851 C 329.478 307.153,329.298 306.801,328.696 306.069 C 328.093 305.337,327.600 304.403,327.600 303.993 C 327.600 303.583,327.420 303.136,327.200 303.000 C 326.980 302.864,326.800 302.213,326.800 301.553 C 326.800 300.893,326.635 300.455,326.433 300.580 C 325.995 300.851,325.431 298.597,325.791 298.014 C 325.943 297.769,325.773 297.712,325.362 297.870 C 324.800 298.086,324.717 297.944,324.887 297.056 C 325.000 296.465,324.909 295.867,324.685 295.729 C 324.434 295.574,324.401 295.678,324.600 296.000 C 324.814 296.346,324.767 296.427,324.462 296.238 C 324.208 296.081,324.000 295.513,324.000 294.976 C 324.000 294.439,323.859 294.000,323.687 294.000 C 323.515 294.000,323.130 293.145,322.831 292.100 C 322.531 291.055,322.020 289.891,321.694 289.514 C 321.350 289.115,321.184 288.394,321.300 287.791 C 321.453 286.990,321.362 286.806,320.901 286.983 C 320.444 287.158,320.349 286.977,320.497 286.206 C 320.626 285.530,320.511 285.200,320.145 285.200 C 319.845 285.200,319.600 284.851,319.600 284.424 C 319.600 283.997,319.420 283.536,319.200 283.400 C 318.980 283.264,318.800 282.801,318.800 282.371 C 318.800 281.941,318.620 281.232,318.400 280.795 C 318.180 280.358,317.820 279.642,317.600 279.205 C 317.380 278.768,317.200 278.057,317.200 277.625 C 317.200 277.193,316.919 276.682,316.575 276.490 C 316.231 276.298,315.934 275.576,315.915 274.884 C 315.895 274.193,315.726 273.722,315.540 273.837 C 315.353 273.953,315.200 273.677,315.200 273.224 C 315.200 272.771,315.020 272.400,314.800 272.400 C 314.580 272.400,314.400 271.759,314.400 270.976 C 314.400 270.129,314.238 269.653,314.000 269.800 C 313.780 269.936,313.600 269.689,313.600 269.252 C 313.600 268.815,313.310 268.167,312.956 267.813 C 312.578 267.435,312.389 266.772,312.497 266.205 C 312.601 265.660,312.500 265.274,312.265 265.320 C 312.035 265.364,311.783 265.040,311.703 264.600 C 311.529 263.636,311.225 262.877,309.859 260.000 C 309.230 258.674,308.893 257.403,309.012 256.800 C 309.120 256.250,309.102 256.025,308.971 256.300 C 308.600 257.081,308.029 256.887,308.193 256.036 C 308.274 255.615,308.089 254.940,307.783 254.536 C 307.476 254.131,307.220 253.485,307.213 253.100 C 307.206 252.715,307.020 252.400,306.800 252.400 C 306.580 252.400,306.400 251.961,306.400 251.424 C 306.400 250.887,306.220 250.336,306.000 250.200 C 305.780 250.064,305.597 249.288,305.594 248.476 C 305.589 247.376,305.489 247.153,305.200 247.600 C 304.829 248.174,304.675 247.722,304.836 246.536 C 304.856 246.391,304.586 246.112,304.236 245.916 C 303.886 245.720,303.600 245.220,303.600 244.804 C 303.600 244.388,303.415 243.933,303.189 243.793 C 302.964 243.654,302.821 243.328,302.873 243.070 C 302.925 242.811,302.749 242.205,302.481 241.721 C 302.214 241.238,301.958 240.396,301.912 239.850 C 301.867 239.304,301.701 238.938,301.543 239.035 C 301.385 239.133,301.142 239.030,301.004 238.807 C 300.866 238.583,300.927 238.400,301.139 238.400 C 301.351 238.400,301.431 238.040,301.316 237.600 C 301.201 237.160,300.967 236.800,300.797 236.800 C 300.626 236.800,300.374 236.350,300.236 235.800 C 300.098 235.250,299.808 234.800,299.592 234.800 C 299.377 234.800,299.200 234.609,299.200 234.376 C 299.200 234.143,299.393 234.072,299.630 234.218 C 300.087 234.501,299.206 232.754,298.702 232.378 C 298.538 232.255,298.365 231.683,298.317 231.106 C 298.269 230.530,298.088 230.145,297.915 230.252 C 297.634 230.426,297.445 229.476,297.490 228.116 C 297.499 227.849,297.304 227.669,297.057 227.716 C 296.787 227.767,296.661 227.342,296.740 226.643 C 296.845 225.722,296.743 225.536,296.236 225.731 C 295.808 225.895,295.598 225.750,295.594 225.287 C 295.587 224.479,294.670 221.736,294.274 221.341 C 294.123 221.190,294.000 220.752,294.000 220.367 C 294.000 219.982,293.796 219.599,293.547 219.516 C 293.297 219.432,293.072 218.803,293.047 218.117 C 293.021 217.430,292.820 216.898,292.600 216.934 C 292.380 216.970,292.230 216.384,292.267 215.631 C 292.313 214.681,292.222 214.436,291.973 214.831 C 291.774 215.144,291.596 215.310,291.576 215.200 C 291.260 213.435,291.135 213.001,290.890 212.817 C 290.277 212.358,289.646 210.000,290.135 209.994 C 290.463 209.990,290.471 209.901,290.163 209.694 C 289.488 209.241,287.714 205.467,287.824 204.720 C 287.877 204.354,287.669 203.959,287.361 203.840 C 287.052 203.722,286.800 203.259,286.800 202.813 C 286.800 202.366,286.620 202.000,286.400 202.000 C 286.180 202.000,286.000 201.674,286.000 201.275 C 286.000 200.876,285.652 199.829,285.226 198.948 C 284.800 198.067,284.330 196.862,284.182 196.269 C 284.033 195.677,283.751 195.094,283.556 194.973 C 283.360 194.852,283.200 194.418,283.200 194.010 C 283.200 193.601,282.975 193.176,282.700 193.065 C 282.300 192.904,282.300 192.857,282.700 192.832 C 282.975 192.814,283.200 192.590,283.200 192.333 C 283.200 192.077,283.074 191.993,282.920 192.146 C 282.567 192.499,280.406 187.128,280.704 186.638 C 280.825 186.439,280.735 186.393,280.504 186.536 C 280.000 186.847,279.691 186.136,279.793 184.900 C 279.837 184.362,279.642 184.000,279.310 184.000 C 279.003 184.000,278.848 183.847,278.964 183.659 C 279.080 183.471,278.916 182.976,278.600 182.559 C 278.284 182.142,278.020 181.305,278.013 180.700 C 278.006 180.095,277.820 179.600,277.600 179.600 C 277.380 179.600,277.200 179.251,277.200 178.824 C 277.200 178.397,277.040 177.948,276.844 177.827 C 276.649 177.706,276.364 177.113,276.213 176.508 C 276.061 175.903,275.783 175.313,275.594 175.197 C 275.406 175.080,275.187 174.500,275.108 173.908 C 275.029 173.315,274.837 172.703,274.682 172.548 C 274.527 172.393,274.400 171.937,274.400 171.533 C 274.400 171.130,274.241 170.800,274.047 170.800 C 273.737 170.800,273.389 170.052,273.002 168.549 C 272.610 167.034,272.298 166.400,271.941 166.400 C 271.695 166.400,271.645 165.906,271.813 165.140 C 272.045 164.083,271.986 163.920,271.445 164.127 C 270.944 164.320,270.800 164.118,270.800 163.221 C 270.800 162.586,270.616 162.005,270.392 161.931 C 270.167 161.856,269.942 161.211,269.892 160.498 C 269.841 159.785,269.665 159.201,269.500 159.201 C 269.335 159.200,269.200 158.952,269.200 158.649 C 269.200 158.346,268.947 157.888,268.637 157.631 C 268.328 157.374,268.122 156.727,268.181 156.193 C 268.240 155.659,268.153 155.306,267.988 155.408 C 267.823 155.510,267.570 154.965,267.426 154.196 C 267.282 153.428,267.031 152.800,266.869 152.800 C 266.556 152.800,265.367 149.206,265.513 148.700 C 265.561 148.535,265.459 148.400,265.286 148.400 C 264.761 148.400,263.516 145.995,263.740 145.412 C 263.855 145.112,263.691 144.767,263.375 144.646 C 263.059 144.524,262.800 143.969,262.800 143.413 C 262.800 142.856,262.620 142.400,262.400 142.400 C 262.180 142.400,262.000 142.034,262.000 141.586 C 262.000 141.138,261.709 140.328,261.354 139.786 C 260.999 139.244,260.822 138.800,260.961 138.800 C 261.100 138.800,260.748 137.882,260.179 136.760 C 259.611 135.637,259.242 134.467,259.360 134.160 C 259.478 133.852,259.349 133.600,259.073 133.600 C 258.796 133.600,258.541 133.211,258.505 132.736 C 258.469 132.261,258.296 131.766,258.120 131.636 C 257.944 131.506,257.740 131.040,257.667 130.600 C 257.593 130.160,257.368 129.629,257.167 129.420 C 256.637 128.871,256.715 128.301,257.273 128.645 C 257.532 128.805,257.248 128.285,256.640 127.487 C 255.883 126.496,255.616 125.780,255.793 125.222 C 255.994 124.590,255.910 124.460,255.426 124.645 C 254.957 124.825,254.800 124.625,254.800 123.843 C 254.800 123.269,254.620 122.800,254.400 122.800 C 254.180 122.800,254.000 122.159,254.000 121.376 C 254.000 120.529,253.838 120.053,253.600 120.200 C 253.380 120.336,253.200 120.085,253.200 119.642 C 253.200 118.669,252.456 116.852,251.673 115.913 C 251.358 115.535,251.192 114.874,251.305 114.443 C 251.449 113.891,251.346 113.723,250.955 113.873 C 250.458 114.063,250.138 112.764,250.363 111.470 C 250.394 111.289,250.235 111.255,250.010 111.394 C 249.771 111.542,249.600 111.221,249.600 110.624 C 249.600 110.061,249.420 109.600,249.200 109.600 C 248.980 109.600,248.800 109.186,248.800 108.680 C 248.800 108.174,248.586 107.546,248.324 107.284 C 247.877 106.837,247.610 106.055,247.510 104.900 C 247.486 104.625,247.317 104.400,247.133 104.400 C 246.950 104.400,246.800 104.040,246.800 103.600 C 246.800 103.160,246.663 102.800,246.495 102.800 C 246.327 102.800,245.967 101.866,245.696 100.725 C 245.425 99.583,245.045 98.548,244.852 98.425 C 244.659 98.301,244.367 97.570,244.204 96.800 C 244.041 96.030,243.733 95.183,243.519 94.918 C 243.306 94.652,243.246 94.249,243.386 94.022 C 243.539 93.776,243.391 93.705,243.021 93.847 C 242.558 94.025,242.400 93.821,242.400 93.043 C 242.400 92.469,242.220 92.000,242.000 92.000 C 241.780 92.000,241.600 91.460,241.600 90.800 C 241.600 90.140,241.420 89.600,241.200 89.600 C 240.980 89.600,240.800 89.328,240.800 88.995 C 240.800 88.662,240.639 88.077,240.443 87.695 C 239.658 86.166,239.065 84.581,239.151 84.237 C 239.201 84.037,239.019 83.735,238.745 83.566 C 238.472 83.397,238.181 82.751,238.100 82.130 C 238.018 81.508,237.782 80.940,237.575 80.867 C 237.369 80.793,237.200 80.386,237.200 79.961 C 237.200 79.537,237.038 78.877,236.841 78.495 C 235.760 76.402,235.145 74.412,235.432 73.935 C 235.690 73.506,235.619 73.509,235.077 73.949 C 234.474 74.438,234.400 74.384,234.400 73.449 C 234.400 72.872,234.220 72.400,234.000 72.400 C 233.780 72.400,233.600 71.860,233.600 71.200 C 233.600 70.540,233.420 70.000,233.200 70.000 C 232.980 70.000,232.800 69.563,232.800 69.029 C 232.800 68.494,232.575 67.819,232.300 67.529 C 232.025 67.238,231.790 66.820,231.777 66.600 C 231.765 66.380,231.538 65.690,231.274 65.066 C 231.010 64.443,230.913 63.740,231.059 63.505 C 231.216 63.250,231.135 63.193,230.857 63.365 C 230.554 63.552,230.304 63.222,230.145 62.427 C 230.010 61.752,229.743 61.200,229.550 61.200 C 229.357 61.200,229.200 60.750,229.200 60.200 C 229.200 59.650,228.998 59.200,228.751 59.200 C 228.441 59.200,228.456 59.015,228.800 58.600 C 229.209 58.107,229.178 58.000,228.625 58.000 C 228.252 58.000,228.070 57.811,228.216 57.575 C 228.360 57.341,228.169 56.808,227.791 56.390 C 227.412 55.972,227.203 55.368,227.326 55.048 C 227.449 54.728,227.287 54.365,226.965 54.242 C 226.592 54.099,226.447 53.657,226.562 53.018 C 226.675 52.397,226.569 52.053,226.281 52.109 C 226.027 52.159,225.754 51.750,225.676 51.200 C 225.597 50.650,225.368 50.029,225.166 49.820 C 224.965 49.611,224.800 49.116,224.800 48.720 C 224.800 48.324,224.636 48.000,224.435 48.000 C 224.234 48.000,223.949 47.280,223.800 46.400 C 223.651 45.520,223.382 44.800,223.202 44.800 C 223.022 44.800,222.977 44.410,223.102 43.933 C 223.282 43.244,223.191 43.118,222.664 43.320 C 222.193 43.501,222.000 43.360,222.000 42.836 C 222.000 42.430,221.719 41.426,221.377 40.606 C 221.034 39.785,220.845 39.022,220.958 38.909 C 221.070 38.797,220.899 38.442,220.577 38.120 C 220.256 37.799,220.095 37.370,220.220 37.168 C 220.345 36.965,220.257 36.800,220.024 36.800 C 219.791 36.800,219.600 36.451,219.600 36.024 C 219.600 35.597,219.417 35.134,219.193 34.996 C 218.970 34.858,218.883 34.590,219.000 34.400 C 219.117 34.210,219.018 33.935,218.779 33.787 C 218.541 33.640,218.446 33.258,218.568 32.939 C 218.691 32.620,218.630 32.458,218.434 32.579 C 218.015 32.838,217.108 30.472,217.428 29.954 C 217.549 29.759,217.457 29.600,217.224 29.600 C 216.991 29.600,216.800 29.229,216.800 28.776 C 216.800 28.323,216.620 28.064,216.400 28.200 C 216.174 28.340,216.000 28.014,216.000 27.452 C 216.000 26.905,215.725 26.182,215.389 25.846 C 215.037 25.494,214.854 24.814,214.958 24.242 C 215.092 23.504,214.992 23.305,214.569 23.467 C 214.167 23.622,214.000 23.380,214.000 22.643 C 214.000 22.069,213.820 21.600,213.600 21.600 C 213.380 21.600,213.200 21.161,213.200 20.624 C 213.200 20.087,213.020 19.536,212.800 19.400 C 212.580 19.264,212.400 18.645,212.400 18.025 C 212.400 17.405,212.132 16.675,211.804 16.403 C 211.435 16.097,211.283 15.507,211.406 14.854 C 211.515 14.274,211.499 14.025,211.369 14.300 C 210.933 15.225,210.306 14.827,210.566 13.791 C 210.744 13.084,210.637 12.712,210.210 12.548 C 209.874 12.420,209.600 11.884,209.600 11.357 C 209.600 10.831,209.420 10.400,209.200 10.400 C 208.980 10.400,208.800 10.068,208.800 9.661 C 208.800 9.255,208.518 8.358,208.173 7.667 C 207.829 6.976,207.647 6.247,207.771 6.047 C 207.894 5.847,207.706 5.573,207.352 5.437 C 206.922 5.272,206.770 4.867,206.895 4.215 C 207.006 3.635,206.903 3.272,206.641 3.320 C 206.398 3.364,206.202 3.130,206.205 2.800 C 206.222 0.540,200.937 -0.726,195.700 0.282 " stroke="none" fill="#d41c5c" fill-rule="evenodd"></path><path id="path2" d="M182.400 30.176 C 182.400 30.822,182.967 31.300,183.317 30.950 C 183.629 30.638,183.199 29.600,182.757 29.600 C 182.561 29.600,182.400 29.859,182.400 30.176 M181.867 31.867 C 181.720 32.013,181.628 34.128,181.661 36.567 L 181.723 41.000 182.013 36.400 C 182.314 31.625,182.308 31.425,181.867 31.867 M182.012 42.400 C 182.012 42.730,182.187 43.270,182.400 43.600 C 182.745 44.133,182.788 44.133,182.788 43.600 C 182.788 43.270,182.613 42.730,182.400 42.400 C 182.055 41.867,182.012 41.867,182.012 42.400 M183.614 46.454 C 183.606 46.594,183.863 47.314,184.184 48.054 C 184.506 48.794,184.769 49.130,184.770 48.800 C 184.772 48.224,183.643 45.934,183.614 46.454 M188.002 57.454 C 188.001 57.704,188.269 58.424,188.598 59.054 C 188.926 59.684,189.196 59.996,189.198 59.746 C 189.199 59.496,188.931 58.776,188.602 58.146 C 188.274 57.516,188.004 57.204,188.002 57.454 M192.417 68.400 C 192.431 69.117,193.565 71.200,193.586 70.546 C 193.594 70.296,193.331 69.576,193.002 68.946 C 192.674 68.316,192.410 68.070,192.417 68.400 M195.233 75.633 C 195.215 75.982,195.335 76.402,195.500 76.567 C 195.665 76.731,196.105 77.616,196.478 78.533 C 196.850 79.450,197.154 79.930,197.153 79.600 C 197.150 78.746,195.273 74.868,195.233 75.633 M198.850 84.000 C 198.842 84.110,199.085 85.100,199.391 86.200 C 199.727 87.411,199.950 87.806,199.955 87.200 C 199.962 86.389,198.901 83.315,198.850 84.000 " stroke="none" fill="#bc1c4c" fill-rule="evenodd"></path><path id="path3" d="M180.697 36.100 C 180.914 36.375,181.214 38.129,181.364 39.997 C 181.513 41.866,181.807 43.567,182.017 43.777 C 182.228 43.988,182.400 44.371,182.400 44.629 C 182.400 45.328,184.037 48.897,184.256 48.677 C 184.360 48.573,184.101 47.703,183.679 46.744 C 182.076 43.094,181.931 42.530,181.709 39.112 C 181.533 36.387,181.349 35.600,180.892 35.600 C 180.476 35.600,180.419 35.747,180.697 36.100 M184.406 49.900 C 184.403 50.395,184.580 50.800,184.800 50.800 C 185.301 50.800,185.301 50.376,184.800 49.600 C 184.486 49.115,184.411 49.172,184.406 49.900 M185.217 51.705 C 185.208 52.093,185.368 52.723,185.574 53.105 C 185.780 53.487,186.351 54.744,186.844 55.897 C 187.337 57.050,187.829 57.905,187.937 57.796 C 188.046 57.688,187.924 57.194,187.667 56.699 C 187.411 56.205,186.758 54.720,186.217 53.400 C 185.676 52.080,185.226 51.317,185.217 51.705 M188.000 58.501 C 188.000 58.645,188.202 59.266,188.450 59.881 C 188.697 60.497,189.057 61.405,189.250 61.900 C 189.985 63.791,190.347 64.660,191.160 66.496 C 191.622 67.538,192.000 68.501,192.000 68.635 C 192.000 68.769,192.288 69.536,192.641 70.340 C 192.993 71.143,193.464 72.250,193.687 72.800 C 193.911 73.350,194.252 74.113,194.447 74.495 C 194.641 74.877,194.800 75.349,194.800 75.544 C 194.800 76.161,196.458 79.675,196.656 79.477 C 196.760 79.373,196.498 78.503,196.074 77.544 C 195.650 76.585,194.632 74.090,193.811 72.000 C 192.990 69.910,192.004 67.480,191.620 66.600 C 191.235 65.720,190.411 63.650,189.788 62.000 C 188.769 59.301,188.000 57.796,188.000 58.501 M197.616 82.420 C 197.607 82.761,197.743 83.211,197.918 83.420 C 198.300 83.875,199.031 86.091,199.405 87.929 C 199.554 88.659,199.763 89.170,199.870 89.063 C 200.149 88.784,198.916 84.165,198.220 82.883 C 197.874 82.246,197.625 82.055,197.616 82.420 " stroke="none" fill="#a41c44" fill-rule="evenodd"></path><path id="path4" d="M214.800 24.752 C 214.800 25.030,215.070 25.527,215.400 25.857 C 216.167 26.624,216.158 26.042,215.387 25.024 C 215.058 24.588,214.800 24.469,214.800 24.752 M183.297 29.059 C 183.316 30.334,183.168 30.966,182.863 30.900 C 182.608 30.845,182.400 31.227,182.400 31.750 C 182.400 32.273,182.306 33.307,182.190 34.050 C 182.036 35.043,182.074 35.189,182.334 34.600 C 182.993 33.109,183.674 31.003,183.691 30.400 C 183.701 30.070,183.880 29.583,184.089 29.317 C 184.339 29.000,184.264 28.540,183.868 27.976 C 183.298 27.163,183.268 27.220,183.297 29.059 M182.069 38.372 C 182.003 41.234,182.318 42.839,183.451 45.400 C 183.752 46.080,183.986 46.307,183.991 45.924 C 183.996 45.552,183.841 45.149,183.646 45.029 C 183.156 44.725,182.779 42.792,182.433 38.800 L 182.138 35.400 182.069 38.372 M186.409 52.705 C 186.404 52.983,186.565 53.523,186.767 53.905 C 186.968 54.287,187.353 55.191,187.620 55.913 C 187.888 56.635,188.204 57.130,188.321 57.012 C 188.438 56.895,188.344 56.394,188.111 55.899 C 187.877 55.405,187.401 54.370,187.052 53.600 C 186.704 52.830,186.414 52.427,186.409 52.705 M190.000 62.271 C 190.000 62.474,190.152 62.811,190.338 63.020 C 190.523 63.229,191.087 64.441,191.590 65.714 C 192.093 66.987,192.601 67.932,192.720 67.814 C 192.913 67.620,192.569 66.701,191.553 64.705 C 191.359 64.323,191.200 63.760,191.200 63.454 C 191.200 63.148,190.930 62.674,190.600 62.400 C 190.270 62.126,190.000 62.068,190.000 62.271 M193.600 71.040 C 193.600 71.260,193.752 71.611,193.938 71.820 C 194.123 72.029,194.687 73.241,195.190 74.514 C 195.693 75.787,196.171 76.763,196.252 76.682 C 196.446 76.488,194.435 71.509,193.965 71.020 C 193.735 70.781,193.600 70.788,193.600 71.040 M198.000 81.933 C 198.000 82.117,198.135 82.402,198.300 82.567 C 198.465 82.731,198.905 83.616,199.278 84.533 C 199.650 85.450,199.965 85.990,199.978 85.733 C 200.006 85.135,198.498 81.600,198.214 81.600 C 198.096 81.600,198.000 81.750,198.000 81.933 M208.846 111.651 C 208.821 112.009,209.070 112.526,209.400 112.800 C 209.815 113.144,210.000 113.159,210.000 112.849 C 210.000 112.602,209.833 112.400,209.629 112.400 C 209.425 112.400,209.176 112.085,209.076 111.700 C 208.921 111.109,208.886 111.102,208.846 111.651 M250.400 113.600 C 250.400 113.820,250.580 114.000,250.800 114.000 C 251.020 114.000,251.200 114.338,251.200 114.751 C 251.200 115.164,251.515 115.749,251.900 116.051 C 252.508 116.528,252.542 116.521,252.155 116.000 C 251.910 115.670,251.592 114.905,251.448 114.300 C 251.200 113.265,250.400 112.730,250.400 113.600 M263.614 145.624 C 263.606 145.966,263.864 146.596,264.187 147.024 C 264.939 148.018,264.948 147.309,264.200 146.000 C 263.834 145.359,263.623 145.224,263.614 145.624 M292.002 215.854 C 292.001 216.104,292.269 216.824,292.598 217.454 C 292.926 218.084,293.196 218.396,293.198 218.146 C 293.199 217.896,292.931 217.176,292.602 216.546 C 292.274 215.916,292.004 215.604,292.002 215.854 M258.302 234.200 C 258.405 234.737,258.784 235.397,259.144 235.668 C 259.696 236.083,259.721 236.073,259.300 235.601 C 259.025 235.292,258.800 234.727,258.800 234.344 C 258.800 233.961,258.646 233.552,258.458 233.436 C 258.270 233.319,258.199 233.663,258.302 234.200 M321.254 288.051 C 321.224 288.630,321.514 289.348,321.900 289.651 C 322.509 290.129,322.540 290.122,322.138 289.600 C 321.884 289.270,321.594 288.550,321.493 288.000 L 321.309 287.000 321.254 288.051 M328.414 306.620 C 328.422 306.829,328.699 307.450,329.031 308.000 L 329.633 309.000 329.372 308.000 C 329.099 306.957,328.389 305.933,328.414 306.620 M345.304 348.230 C 345.335 348.686,345.594 349.278,345.880 349.546 C 346.552 350.174,346.521 349.666,345.810 348.400 C 345.307 347.506,345.254 347.488,345.304 348.230 M347.681 455.182 C 348.233 456.066,348.622 455.955,348.262 455.017 C 348.132 454.678,347.838 454.400,347.609 454.400 C 347.346 454.400,347.372 454.687,347.681 455.182 M398.200 495.755 C 397.447 496.652,397.464 497.482,398.220 496.739 C 398.590 496.376,398.827 495.899,398.746 495.679 C 398.657 495.435,398.444 495.464,398.200 495.755 M368.933 501.783 C 368.933 502.103,369.199 502.468,369.524 502.592 C 370.369 502.916,370.397 502.703,369.615 501.900 C 369.072 501.343,368.933 501.319,368.933 501.783 " stroke="none" fill="#cc1c54" fill-rule="evenodd"></path></g></svg>